STARTFONT 2.1
FONT -t-banana-Medium-R-Normal--14-120-96-96-C-100-ISO10646-1
SIZE 12 96 96
FONTBOUNDINGBOX 7 14 0 -3
STARTPROPERTIES 14
POINT_SIZE 120
PIXEL_SIZE 14
RESOLUTION_X 96
RESOLUTION_Y 96
FONT_ASCENT 11
FONT_DESCENT 3
AVERAGE_WIDTH 100
SPACING "C"
FOUNDRY "t"
DEFAULT_CHAR 0
FAMILY_NAME "banana"
CHARSET_ENCODING "1"
CHARSET_REGISTRY "ISO10646"
_GBDFED_INFO "Edited with gbdfed 1.6."
ENDPROPERTIES
CHARS 386
STARTCHAR <control>
ENCODING 0
SWIDTH 437 0
DWIDTH 7 0
BBX 7 14 0 -3
BITMAP
00
00
00
00
00
00
00
00
00
00
00
00
00
00
ENDCHAR
STARTCHAR EXCLAMATION MARK
ENCODING 33
SWIDTH 437 0
DWIDTH 7 0
BBX 7 14 0 -3
BITMAP
00
00
00
10
10
10
10
10
00
10
10
00
00
00
ENDCHAR
STARTCHAR QUOTATION MARK
ENCODING 34
SWIDTH 437 0
DWIDTH 7 0
BBX 7 14 0 -3
BITMAP
00
28
28
28
00
00
00
00
00
00
00
00
00
00
ENDCHAR
STARTCHAR NUMBER SIGN
ENCODING 35
SWIDTH 437 0
DWIDTH 7 0
BBX 7 14 0 -3
BITMAP
00
00
00
28
28
7C
28
28
7C
28
28
00
00
00
ENDCHAR
STARTCHAR DOLLAR SIGN
ENCODING 36
SWIDTH 437 0
DWIDTH 7 0
BBX 7 14 0 -3
BITMAP
00
00
10
38
54
50
38
14
14
54
38
10
00
00
ENDCHAR
STARTCHAR PERCENT SIGN
ENCODING 37
SWIDTH 437 0
DWIDTH 7 0
BBX 7 14 0 -3
BITMAP
00
00
00
48
A8
50
10
20
28
54
48
00
00
00
ENDCHAR
STARTCHAR AMPERSAND
ENCODING 38
SWIDTH 437 0
DWIDTH 7 0
BBX 7 14 0 -3
BITMAP
00
00
00
20
50
50
20
60
94
88
74
00
00
00
ENDCHAR
STARTCHAR APOSTROPHE
ENCODING 39
SWIDTH 437 0
DWIDTH 7 0
BBX 7 14 0 -3
BITMAP
00
10
10
10
00
00
00
00
00
00
00
00
00
00
ENDCHAR
STARTCHAR LEFT PARENTHESIS
ENCODING 40
SWIDTH 437 0
DWIDTH 7 0
BBX 7 14 0 -3
BITMAP
00
00
04
08
08
10
10
10
10
10
08
08
04
00
ENDCHAR
STARTCHAR RIGHT PARENTHESIS
ENCODING 41
SWIDTH 437 0
DWIDTH 7 0
BBX 7 14 0 -3
BITMAP
00
00
40
20
20
10
10
10
10
10
20
20
40
00
ENDCHAR
STARTCHAR ASTERISK
ENCODING 42
SWIDTH 437 0
DWIDTH 7 0
BBX 7 14 0 -3
BITMAP
00
00
00
00
00
28
10
7C
10
28
00
00
00
00
ENDCHAR
STARTCHAR PLUS SIGN
ENCODING 43
SWIDTH 437 0
DWIDTH 7 0
BBX 7 14 0 -3
BITMAP
00
00
00
00
00
10
10
7C
10
10
00
00
00
00
ENDCHAR
STARTCHAR COMMA
ENCODING 44
SWIDTH 437 0
DWIDTH 7 0
BBX 7 14 0 -3
BITMAP
00
00
00
00
00
00
00
00
00
10
10
10
20
00
ENDCHAR
STARTCHAR HYPHEN-MINUS
ENCODING 45
SWIDTH 437 0
DWIDTH 7 0
BBX 7 14 0 -3
BITMAP
00
00
00
00
00
00
00
7C
00
00
00
00
00
00
ENDCHAR
STARTCHAR FULL STOP
ENCODING 46
SWIDTH 437 0
DWIDTH 7 0
BBX 7 14 0 -3
BITMAP
00
00
00
00
00
00
00
00
00
10
10
00
00
00
ENDCHAR
STARTCHAR SOLIDUS
ENCODING 47
SWIDTH 437 0
DWIDTH 7 0
BBX 7 14 0 -3
BITMAP
00
00
04
04
08
08
10
10
20
20
40
40
00
00
ENDCHAR
STARTCHAR DIGIT ZERO
ENCODING 48
SWIDTH 437 0
DWIDTH 7 0
BBX 7 14 0 -3
BITMAP
00
00
00
38
44
4C
54
54
64
44
38
00
00
00
ENDCHAR
STARTCHAR DIGIT ONE
ENCODING 49
SWIDTH 437 0
DWIDTH 7 0
BBX 7 14 0 -3
BITMAP
00
00
00
10
30
50
10
10
10
10
7C
00
00
00
ENDCHAR
STARTCHAR DIGIT TWO
ENCODING 50
SWIDTH 437 0
DWIDTH 7 0
BBX 7 14 0 -3
BITMAP
00
00
00
38
44
04
04
08
10
20
7C
00
00
00
ENDCHAR
STARTCHAR DIGIT THREE
ENCODING 51
SWIDTH 437 0
DWIDTH 7 0
BBX 7 14 0 -3
BITMAP
00
00
00
38
44
04
18
04
04
44
38
00
00
00
ENDCHAR
STARTCHAR DIGIT FOUR
ENCODING 52
SWIDTH 437 0
DWIDTH 7 0
BBX 7 14 0 -3
BITMAP
00
00
00
08
18
28
48
7C
08
08
08
00
00
00
ENDCHAR
STARTCHAR DIGIT FIVE
ENCODING 53
SWIDTH 437 0
DWIDTH 7 0
BBX 7 14 0 -3
BITMAP
00
00
00
7C
40
40
78
04
04
04
78
00
00
00
ENDCHAR
STARTCHAR DIGIT SIX
ENCODING 54
SWIDTH 437 0
DWIDTH 7 0
BBX 7 14 0 -3
BITMAP
00
00
00
38
40
40
78
44
44
44
38
00
00
00
ENDCHAR
STARTCHAR DIGIT SEVEN
ENCODING 55
SWIDTH 437 0
DWIDTH 7 0
BBX 7 14 0 -3
BITMAP
00
00
00
7C
04
08
10
10
20
20
20
00
00
00
ENDCHAR
STARTCHAR DIGIT EIGHT
ENCODING 56
SWIDTH 437 0
DWIDTH 7 0
BBX 7 14 0 -3
BITMAP
00
00
00
38
44
44
38
44
44
44
38
00
00
00
ENDCHAR
STARTCHAR DIGIT NINE
ENCODING 57
SWIDTH 437 0
DWIDTH 7 0
BBX 7 14 0 -3
BITMAP
00
00
00
38
44
44
44
3C
04
04
38
00
00
00
ENDCHAR
STARTCHAR COLON
ENCODING 58
SWIDTH 437 0
DWIDTH 7 0
BBX 7 14 0 -3
BITMAP
00
00
00
00
00
10
10
00
00
10
10
00
00
00
ENDCHAR
STARTCHAR SEMICOLON
ENCODING 59
SWIDTH 437 0
DWIDTH 7 0
BBX 7 14 0 -3
BITMAP
00
00
00
00
00
10
10
00
00
10
10
10
20
00
ENDCHAR
STARTCHAR LESS-THAN SIGN
ENCODING 60
SWIDTH 437 0
DWIDTH 7 0
BBX 7 14 0 -3
BITMAP
00
00
00
00
04
08
10
20
10
08
04
00
00
00
ENDCHAR
STARTCHAR EQUALS SIGN
ENCODING 61
SWIDTH 437 0
DWIDTH 7 0
BBX 7 14 0 -3
BITMAP
00
00
00
00
00
00
7C
00
7C
00
00
00
00
00
ENDCHAR
STARTCHAR GREATER-THAN SIGN
ENCODING 62
SWIDTH 437 0
DWIDTH 7 0
BBX 7 14 0 -3
BITMAP
00
00
00
00
40
20
10
08
10
20
40
00
00
00
ENDCHAR
STARTCHAR QUESTION MARK
ENCODING 63
SWIDTH 437 0
DWIDTH 7 0
BBX 7 14 0 -3
BITMAP
00
00
00
38
44
44
08
10
00
10
10
00
00
00
ENDCHAR
STARTCHAR COMMERCIAL AT
ENCODING 64
SWIDTH 437 0
DWIDTH 7 0
BBX 7 14 0 -3
BITMAP
00
00
00
18
24
4C
54
54
4C
20
18
00
00
00
ENDCHAR
STARTCHAR LATIN CAPITAL LETTER A
ENCODING 65
SWIDTH 437 0
DWIDTH 7 0
BBX 7 14 0 -3
BITMAP
00
00
00
10
10
28
28
28
38
44
44
00
00
00
ENDCHAR
STARTCHAR LATIN CAPITAL LETTER B
ENCODING 66
SWIDTH 437 0
DWIDTH 7 0
BBX 7 14 0 -3
BITMAP
00
00
00
78
44
44
78
44
44
44
78
00
00
00
ENDCHAR
STARTCHAR LATIN CAPITAL LETTER C
ENCODING 67
SWIDTH 437 0
DWIDTH 7 0
BBX 7 14 0 -3
BITMAP
00
00
00
38
44
40
40
40
40
44
38
00
00
00
ENDCHAR
STARTCHAR LATIN CAPITAL LETTER D
ENCODING 68
SWIDTH 437 0
DWIDTH 7 0
BBX 7 14 0 -3
BITMAP
00
00
00
70
48
44
44
44
44
48
70
00
00
00
ENDCHAR
STARTCHAR LATIN CAPITAL LETTER E
ENCODING 69
SWIDTH 437 0
DWIDTH 7 0
BBX 7 14 0 -3
BITMAP
00
00
00
7C
40
40
78
40
40
40
7C
00
00
00
ENDCHAR
STARTCHAR LATIN CAPITAL LETTER F
ENCODING 70
SWIDTH 437 0
DWIDTH 7 0
BBX 7 14 0 -3
BITMAP
00
00
00
7C
40
40
78
40
40
40
40
00
00
00
ENDCHAR
STARTCHAR LATIN CAPITAL LETTER G
ENCODING 71
SWIDTH 437 0
DWIDTH 7 0
BBX 7 14 0 -3
BITMAP
00
00
00
38
44
40
4C
44
44
44
38
00
00
00
ENDCHAR
STARTCHAR LATIN CAPITAL LETTER H
ENCODING 72
SWIDTH 437 0
DWIDTH 7 0
BBX 7 14 0 -3
BITMAP
00
00
00
44
44
44
7C
44
44
44
44
00
00
00
ENDCHAR
STARTCHAR LATIN CAPITAL LETTER I
ENCODING 73
SWIDTH 437 0
DWIDTH 7 0
BBX 7 14 0 -3
BITMAP
00
00
00
38
10
10
10
10
10
10
38
00
00
00
ENDCHAR
STARTCHAR LATIN CAPITAL LETTER J
ENCODING 74
SWIDTH 437 0
DWIDTH 7 0
BBX 7 14 0 -3
BITMAP
00
00
00
1C
04
04
04
04
04
44
38
00
00
00
ENDCHAR
STARTCHAR LATIN CAPITAL LETTER K
ENCODING 75
SWIDTH 437 0
DWIDTH 7 0
BBX 7 14 0 -3
BITMAP
00
00
00
44
48
50
70
48
48
44
44
00
00
00
ENDCHAR
STARTCHAR LATIN CAPITAL LETTER L
ENCODING 76
SWIDTH 437 0
DWIDTH 7 0
BBX 7 14 0 -3
BITMAP
00
00
00
40
40
40
40
40
40
40
7C
00
00
00
ENDCHAR
STARTCHAR LATIN CAPITAL LETTER M
ENCODING 77
SWIDTH 437 0
DWIDTH 7 0
BBX 7 14 0 -3
BITMAP
00
00
00
44
6C
54
54
44
44
44
44
00
00
00
ENDCHAR
STARTCHAR LATIN CAPITAL LETTER N
ENCODING 78
SWIDTH 437 0
DWIDTH 7 0
BBX 7 14 0 -3
BITMAP
00
00
00
44
64
54
54
4C
44
44
44
00
00
00
ENDCHAR
STARTCHAR LATIN CAPITAL LETTER O
ENCODING 79
SWIDTH 437 0
DWIDTH 7 0
BBX 7 14 0 -3
BITMAP
00
00
00
38
44
44
44
44
44
44
38
00
00
00
ENDCHAR
STARTCHAR LATIN CAPITAL LETTER P
ENCODING 80
SWIDTH 437 0
DWIDTH 7 0
BBX 7 14 0 -3
BITMAP
00
00
00
78
44
44
78
40
40
40
40
00
00
00
ENDCHAR
STARTCHAR LATIN CAPITAL LETTER Q
ENCODING 81
SWIDTH 437 0
DWIDTH 7 0
BBX 7 14 0 -3
BITMAP
00
00
00
38
44
44
44
44
44
48
34
04
00
00
ENDCHAR
STARTCHAR LATIN CAPITAL LETTER R
ENCODING 82
SWIDTH 437 0
DWIDTH 7 0
BBX 7 14 0 -3
BITMAP
00
00
00
78
44
44
78
48
44
44
44
00
00
00
ENDCHAR
STARTCHAR LATIN CAPITAL LETTER S
ENCODING 83
SWIDTH 437 0
DWIDTH 7 0
BBX 7 14 0 -3
BITMAP
00
00
00
38
44
40
38
04
04
44
38
00
00
00
ENDCHAR
STARTCHAR LATIN CAPITAL LETTER T
ENCODING 84
SWIDTH 437 0
DWIDTH 7 0
BBX 7 14 0 -3
BITMAP
00
00
00
7C
10
10
10
10
10
10
10
00
00
00
ENDCHAR
STARTCHAR LATIN CAPITAL LETTER U
ENCODING 85
SWIDTH 437 0
DWIDTH 7 0
BBX 7 14 0 -3
BITMAP
00
00
00
44
44
44
44
44
44
44
38
00
00
00
ENDCHAR
STARTCHAR LATIN CAPITAL LETTER V
ENCODING 86
SWIDTH 437 0
DWIDTH 7 0
BBX 7 14 0 -3
BITMAP
00
00
00
44
44
28
28
28
10
10
10
00
00
00
ENDCHAR
STARTCHAR LATIN CAPITAL LETTER W
ENCODING 87
SWIDTH 437 0
DWIDTH 7 0
BBX 7 14 0 -3
BITMAP
00
00
00
44
44
54
54
54
54
54
28
00
00
00
ENDCHAR
STARTCHAR LATIN CAPITAL LETTER X
ENCODING 88
SWIDTH 437 0
DWIDTH 7 0
BBX 7 14 0 -3
BITMAP
00
00
00
44
28
28
10
10
28
28
44
00
00
00
ENDCHAR
STARTCHAR LATIN CAPITAL LETTER Y
ENCODING 89
SWIDTH 437 0
DWIDTH 7 0
BBX 7 14 0 -3
BITMAP
00
00
00
44
44
44
38
10
10
10
10
00
00
00
ENDCHAR
STARTCHAR LATIN CAPITAL LETTER Z
ENCODING 90
SWIDTH 437 0
DWIDTH 7 0
BBX 7 14 0 -3
BITMAP
00
00
00
7C
08
08
10
10
20
20
7C
00
00
00
ENDCHAR
STARTCHAR LEFT SQUARE BRACKET
ENCODING 91
SWIDTH 437 0
DWIDTH 7 0
BBX 7 14 0 -3
BITMAP
00
00
1C
10
10
10
10
10
10
10
10
10
1C
00
ENDCHAR
STARTCHAR REVERSE SOLIDUS
ENCODING 92
SWIDTH 437 0
DWIDTH 7 0
BBX 7 14 0 -3
BITMAP
00
00
40
40
20
20
10
10
08
08
04
04
00
00
ENDCHAR
STARTCHAR RIGHT SQUARE BRACKET
ENCODING 93
SWIDTH 437 0
DWIDTH 7 0
BBX 7 14 0 -3
BITMAP
00
00
70
10
10
10
10
10
10
10
10
10
70
00
ENDCHAR
STARTCHAR CIRCUMFLEX ACCENT
ENCODING 94
SWIDTH 437 0
DWIDTH 7 0
BBX 7 14 0 -3
BITMAP
00
00
10
28
44
00
00
00
00
00
00
00
00
00
ENDCHAR
STARTCHAR LOW LINE
ENCODING 95
SWIDTH 437 0
DWIDTH 7 0
BBX 7 14 0 -3
BITMAP
00
00
00
00
00
00
00
00
00
00
00
7C
00
00
ENDCHAR
STARTCHAR GRAVE ACCENT
ENCODING 96
SWIDTH 437 0
DWIDTH 7 0
BBX 7 14 0 -3
BITMAP
00
00
30
10
08
00
00
00
00
00
00
00
00
00
ENDCHAR
STARTCHAR LATIN SMALL LETTER A
ENCODING 97
SWIDTH 437 0
DWIDTH 7 0
BBX 7 14 0 -3
BITMAP
00
00
00
00
00
38
04
3C
44
44
3C
00
00
00
ENDCHAR
STARTCHAR LATIN SMALL LETTER B
ENCODING 98
SWIDTH 437 0
DWIDTH 7 0
BBX 7 14 0 -3
BITMAP
00
00
40
40
40
78
44
44
44
44
78
00
00
00
ENDCHAR
STARTCHAR LATIN SMALL LETTER C
ENCODING 99
SWIDTH 437 0
DWIDTH 7 0
BBX 7 14 0 -3
BITMAP
00
00
00
00
00
38
44
40
40
44
38
00
00
00
ENDCHAR
STARTCHAR LATIN SMALL LETTER D
ENCODING 100
SWIDTH 437 0
DWIDTH 7 0
BBX 7 14 0 -3
BITMAP
00
00
04
04
04
3C
44
44
44
44
3C
00
00
00
ENDCHAR
STARTCHAR LATIN SMALL LETTER E
ENCODING 101
SWIDTH 437 0
DWIDTH 7 0
BBX 7 14 0 -3
BITMAP
00
00
00
00
00
38
44
7C
40
44
38
00
00
00
ENDCHAR
STARTCHAR LATIN SMALL LETTER F
ENCODING 102
SWIDTH 437 0
DWIDTH 7 0
BBX 7 14 0 -3
BITMAP
00
00
1C
20
20
78
20
20
20
20
20
00
00
00
ENDCHAR
STARTCHAR LATIN SMALL LETTER G
ENCODING 103
SWIDTH 437 0
DWIDTH 7 0
BBX 7 14 0 -3
BITMAP
00
00
00
00
00
3C
44
44
44
44
3C
04
04
38
ENDCHAR
STARTCHAR LATIN SMALL LETTER H
ENCODING 104
SWIDTH 437 0
DWIDTH 7 0
BBX 7 14 0 -3
BITMAP
00
00
40
40
40
58
64
44
44
44
44
00
00
00
ENDCHAR
STARTCHAR LATIN SMALL LETTER I
ENCODING 105
SWIDTH 437 0
DWIDTH 7 0
BBX 7 14 0 -3
BITMAP
00
00
10
10
00
30
10
10
10
10
38
00
00
00
ENDCHAR
STARTCHAR LATIN SMALL LETTER J
ENCODING 106
SWIDTH 437 0
DWIDTH 7 0
BBX 7 14 0 -3
BITMAP
00
00
10
10
00
30
10
10
10
10
10
10
10
E0
ENDCHAR
STARTCHAR LATIN SMALL LETTER K
ENCODING 107
SWIDTH 437 0
DWIDTH 7 0
BBX 7 14 0 -3
BITMAP
00
00
40
40
40
44
48
50
70
48
44
00
00
00
ENDCHAR
STARTCHAR LATIN SMALL LETTER L
ENCODING 108
SWIDTH 437 0
DWIDTH 7 0
BBX 7 14 0 -3
BITMAP
00
00
30
10
10
10
10
10
10
10
38
00
00
00
ENDCHAR
STARTCHAR LATIN SMALL LETTER M
ENCODING 109
SWIDTH 437 0
DWIDTH 7 0
BBX 7 14 0 -3
BITMAP
00
00
00
00
00
68
54
54
54
54
54
00
00
00
ENDCHAR
STARTCHAR LATIN SMALL LETTER N
ENCODING 110
SWIDTH 437 0
DWIDTH 7 0
BBX 7 14 0 -3
BITMAP
00
00
00
00
00
58
64
44
44
44
44
00
00
00
ENDCHAR
STARTCHAR LATIN SMALL LETTER O
ENCODING 111
SWIDTH 437 0
DWIDTH 7 0
BBX 7 14 0 -3
BITMAP
00
00
00
00
00
38
44
44
44
44
38
00
00
00
ENDCHAR
STARTCHAR LATIN SMALL LETTER P
ENCODING 112
SWIDTH 437 0
DWIDTH 7 0
BBX 7 14 0 -3
BITMAP
00
00
00
00
00
78
44
44
44
44
78
40
40
40
ENDCHAR
STARTCHAR LATIN SMALL LETTER Q
ENCODING 113
SWIDTH 437 0
DWIDTH 7 0
BBX 7 14 0 -3
BITMAP
00
00
00
00
00
3C
44
44
44
44
3C
04
04
04
ENDCHAR
STARTCHAR LATIN SMALL LETTER R
ENCODING 114
SWIDTH 437 0
DWIDTH 7 0
BBX 7 14 0 -3
BITMAP
00
00
00
00
00
58
64
40
40
40
40
00
00
00
ENDCHAR
STARTCHAR LATIN SMALL LETTER S
ENCODING 115
SWIDTH 437 0
DWIDTH 7 0
BBX 7 14 0 -3
BITMAP
00
00
00
00
00
38
44
38
04
44
38
00
00
00
ENDCHAR
STARTCHAR LATIN SMALL LETTER T
ENCODING 116
SWIDTH 437 0
DWIDTH 7 0
BBX 7 14 0 -3
BITMAP
00
00
20
20
20
78
20
20
20
20
18
00
00
00
ENDCHAR
STARTCHAR LATIN SMALL LETTER U
ENCODING 117
SWIDTH 437 0
DWIDTH 7 0
BBX 7 14 0 -3
BITMAP
00
00
00
00
00
44
44
44
44
44
3C
00
00
00
ENDCHAR
STARTCHAR LATIN SMALL LETTER V
ENCODING 118
SWIDTH 437 0
DWIDTH 7 0
BBX 7 14 0 -3
BITMAP
00
00
00
00
00
44
44
28
28
10
10
00
00
00
ENDCHAR
STARTCHAR LATIN SMALL LETTER W
ENCODING 119
SWIDTH 437 0
DWIDTH 7 0
BBX 7 14 0 -3
BITMAP
00
00
00
00
00
44
44
54
54
54
28
00
00
00
ENDCHAR
STARTCHAR LATIN SMALL LETTER X
ENCODING 120
SWIDTH 437 0
DWIDTH 7 0
BBX 7 14 0 -3
BITMAP
00
00
00
00
00
44
28
10
10
28
44
00
00
00
ENDCHAR
STARTCHAR LATIN SMALL LETTER Y
ENCODING 121
SWIDTH 437 0
DWIDTH 7 0
BBX 7 14 0 -3
BITMAP
00
00
00
00
00
44
44
44
44
44
3C
04
04
38
ENDCHAR
STARTCHAR LATIN SMALL LETTER Z
ENCODING 122
SWIDTH 437 0
DWIDTH 7 0
BBX 7 14 0 -3
BITMAP
00
00
00
00
00
7C
08
10
10
20
7C
00
00
00
ENDCHAR
STARTCHAR LEFT CURLY BRACKET
ENCODING 123
SWIDTH 437 0
DWIDTH 7 0
BBX 7 14 0 -3
BITMAP
00
00
0C
10
10
10
10
60
10
10
10
10
0C
00
ENDCHAR
STARTCHAR VERTICAL LINE
ENCODING 124
SWIDTH 437 0
DWIDTH 7 0
BBX 7 14 0 -3
BITMAP
00
00
10
10
10
10
10
10
10
10
10
10
00
00
ENDCHAR
STARTCHAR RIGHT CURLY BRACKET
ENCODING 125
SWIDTH 437 0
DWIDTH 7 0
BBX 7 14 0 -3
BITMAP
00
00
60
10
10
10
10
0C
10
10
10
10
60
00
ENDCHAR
STARTCHAR TILDE
ENCODING 126
SWIDTH 437 0
DWIDTH 7 0
BBX 7 14 0 -3
BITMAP
00
00
00
00
00
20
54
54
08
00
00
00
00
00
ENDCHAR
STARTCHAR NO-BREAK SPACE
ENCODING 160
SWIDTH 437 0
DWIDTH 7 0
BBX 7 14 0 -3
BITMAP
00
00
00
00
00
00
00
00
00
00
44
7C
00
00
ENDCHAR
STARTCHAR INVERTED EXCLAMATION MARK
ENCODING 161
SWIDTH 437 0
DWIDTH 7 0
BBX 7 14 0 -3
BITMAP
00
00
00
10
10
00
10
10
10
10
10
00
00
00
ENDCHAR
STARTCHAR CENT SIGN
ENCODING 162
SWIDTH 437 0
DWIDTH 7 0
BBX 7 14 0 -3
BITMAP
00
00
10
38
54
50
50
50
50
54
38
10
00
00
ENDCHAR
STARTCHAR POUND SIGN
ENCODING 163
SWIDTH 437 0
DWIDTH 7 0
BBX 7 14 0 -3
BITMAP
00
00
00
18
24
24
20
70
20
24
7C
00
00
00
ENDCHAR
STARTCHAR CURRENCY SIGN
ENCODING 164
SWIDTH 437 0
DWIDTH 7 0
BBX 7 14 0 -3
BITMAP
00
00
00
00
00
44
38
28
38
44
00
00
00
00
ENDCHAR
STARTCHAR YEN SIGN
ENCODING 165
SWIDTH 437 0
DWIDTH 7 0
BBX 7 14 0 -3
BITMAP
00
00
00
44
44
44
38
7C
10
7C
10
00
00
00
ENDCHAR
STARTCHAR BROKEN BAR
ENCODING 166
SWIDTH 437 0
DWIDTH 7 0
BBX 7 14 0 -3
BITMAP
00
10
10
10
00
00
00
00
00
10
10
10
00
00
ENDCHAR
STARTCHAR SECTION SIGN
ENCODING 167
SWIDTH 437 0
DWIDTH 7 0
BBX 7 14 0 -3
BITMAP
00
00
3C
40
40
38
44
44
38
04
04
78
00
00
ENDCHAR
STARTCHAR DIAERESIS
ENCODING 168
SWIDTH 437 0
DWIDTH 7 0
BBX 7 14 0 -3
BITMAP
28
28
00
00
00
00
00
00
00
00
00
00
00
00
ENDCHAR
STARTCHAR COPYRIGHT SIGN
ENCODING 169
SWIDTH 437 0
DWIDTH 7 0
BBX 7 14 0 -3
BITMAP
00
00
00
38
64
5C
5C
5C
5C
64
38
00
00
00
ENDCHAR
STARTCHAR FEMININE ORDINAL INDICATOR
ENCODING 170
SWIDTH 437 0
DWIDTH 7 0
BBX 7 14 0 -3
BITMAP
00
38
48
48
38
00
78
00
00
00
00
00
00
00
ENDCHAR
STARTCHAR LEFT-POINTING DOUBLE ANGLE QUOTATION MARK
ENCODING 171
SWIDTH 437 0
DWIDTH 7 0
BBX 7 14 0 -3
BITMAP
00
00
00
00
00
00
24
48
48
24
00
00
00
00
ENDCHAR
STARTCHAR NOT SIGN
ENCODING 172
SWIDTH 437 0
DWIDTH 7 0
BBX 7 14 0 -3
BITMAP
00
00
00
00
00
00
00
7C
04
04
04
00
00
00
ENDCHAR
STARTCHAR SOFT HYPHEN
ENCODING 173
SWIDTH 437 0
DWIDTH 7 0
BBX 7 14 0 -3
BITMAP
00
00
00
00
00
00
00
38
00
00
00
00
00
00
ENDCHAR
STARTCHAR REGISTERED SIGN
ENCODING 174
SWIDTH 437 0
DWIDTH 7 0
BBX 7 14 0 -3
BITMAP
00
00
00
38
44
54
44
4C
54
54
38
00
00
00
ENDCHAR
STARTCHAR MACRON
ENCODING 175
SWIDTH 437 0
DWIDTH 7 0
BBX 7 14 0 -3
BITMAP
00
7C
00
00
00
00
00
00
00
00
00
00
00
00
ENDCHAR
STARTCHAR DEGREE SIGN
ENCODING 176
SWIDTH 437 0
DWIDTH 7 0
BBX 7 14 0 -3
BITMAP
00
30
48
48
30
00
00
00
00
00
00
00
00
00
ENDCHAR
STARTCHAR PLUS-MINUS SIGN
ENCODING 177
SWIDTH 437 0
DWIDTH 7 0
BBX 7 14 0 -3
BITMAP
00
00
00
00
10
10
10
7C
10
10
7C
00
00
00
ENDCHAR
STARTCHAR SUPERSCRIPT TWO
ENCODING 178
SWIDTH 437 0
DWIDTH 7 0
BBX 7 14 0 -3
BITMAP
00
30
08
10
38
00
00
00
00
00
00
00
00
00
ENDCHAR
STARTCHAR SUPERSCRIPT THREE
ENCODING 179
SWIDTH 437 0
DWIDTH 7 0
BBX 7 14 0 -3
BITMAP
00
38
10
08
30
00
00
00
00
00
00
00
00
00
ENDCHAR
STARTCHAR ACUTE ACCENT
ENCODING 180
SWIDTH 437 0
DWIDTH 7 0
BBX 7 14 0 -3
BITMAP
10
20
00
00
00
00
00
00
00
00
00
00
00
00
ENDCHAR
STARTCHAR MICRO SIGN
ENCODING 181
SWIDTH 437 0
DWIDTH 7 0
BBX 7 14 0 -3
BITMAP
00
00
00
00
00
44
44
44
44
44
7C
42
40
00
ENDCHAR
STARTCHAR PILCROW SIGN
ENCODING 182
SWIDTH 437 0
DWIDTH 7 0
BBX 7 14 0 -3
BITMAP
00
00
00
3C
74
74
74
34
14
14
14
00
00
00
ENDCHAR
STARTCHAR MIDDLE DOT
ENCODING 183
SWIDTH 437 0
DWIDTH 7 0
BBX 7 14 0 -3
BITMAP
00
00
00
00
00
00
00
10
10
00
00
00
00
00
ENDCHAR
STARTCHAR CEDILLA
ENCODING 184
SWIDTH 437 0
DWIDTH 7 0
BBX 7 14 0 -3
BITMAP
00
00
00
00
00
00
00
00
00
00
00
10
20
00
ENDCHAR
STARTCHAR SUPERSCRIPT ONE
ENCODING 185
SWIDTH 437 0
DWIDTH 7 0
BBX 7 14 0 -3
BITMAP
00
10
30
10
10
00
00
00
00
00
00
00
00
00
ENDCHAR
STARTCHAR MASCULINE ORDINAL INDICATOR
ENCODING 186
SWIDTH 437 0
DWIDTH 7 0
BBX 7 14 0 -3
BITMAP
00
30
48
48
30
00
78
00
00
00
00
00
00
00
ENDCHAR
STARTCHAR RIGHT-POINTING DOUBLE ANGLE QUOTATION MARK
ENCODING 187
SWIDTH 437 0
DWIDTH 7 0
BBX 7 14 0 -3
BITMAP
00
00
00
00
00
00
48
24
24
48
00
00
00
00
ENDCHAR
STARTCHAR VULGAR FRACTION ONE QUARTER
ENCODING 188
SWIDTH 437 0
DWIDTH 7 0
BBX 7 14 0 -3
BITMAP
00
20
60
20
24
08
10
20
4A
0A
06
02
00
00
ENDCHAR
STARTCHAR VULGAR FRACTION ONE HALF
ENCODING 189
SWIDTH 437 0
DWIDTH 7 0
BBX 7 14 0 -3
BITMAP
00
20
60
20
24
08
10
20
4C
02
04
0E
00
00
ENDCHAR
STARTCHAR VULGAR FRACTION THREE QUARTERS
ENCODING 190
SWIDTH 437 0
DWIDTH 7 0
BBX 7 14 0 -3
BITMAP
00
70
20
10
64
08
10
20
4A
0A
06
02
00
00
ENDCHAR
STARTCHAR INVERTED QUESTION MARK
ENCODING 191
SWIDTH 437 0
DWIDTH 7 0
BBX 7 14 0 -3
BITMAP
00
00
00
10
10
00
10
20
44
44
38
00
00
00
ENDCHAR
STARTCHAR LATIN CAPITAL LETTER A WITH GRAVE
ENCODING 192
SWIDTH 437 0
DWIDTH 7 0
BBX 7 14 0 -3
BITMAP
20
10
00
10
10
28
28
28
38
44
44
00
00
00
ENDCHAR
STARTCHAR LATIN CAPITAL LETTER A WITH ACUTE
ENCODING 193
SWIDTH 437 0
DWIDTH 7 0
BBX 7 14 0 -3
BITMAP
08
10
00
10
10
28
28
28
38
44
44
00
00
00
ENDCHAR
STARTCHAR LATIN CAPITAL LETTER A WITH CIRCUMFLEX
ENCODING 194
SWIDTH 437 0
DWIDTH 7 0
BBX 7 14 0 -3
BITMAP
10
28
00
10
10
28
28
28
38
44
44
00
00
00
ENDCHAR
STARTCHAR LATIN CAPITAL LETTER A WITH TILDE
ENCODING 195
SWIDTH 437 0
DWIDTH 7 0
BBX 7 14 0 -3
BITMAP
28
50
00
10
10
28
28
28
38
44
44
00
00
00
ENDCHAR
STARTCHAR LATIN CAPITAL LETTER A WITH DIAERESIS
ENCODING 196
SWIDTH 437 0
DWIDTH 7 0
BBX 7 14 0 -3
BITMAP
28
28
00
10
10
28
28
28
38
44
44
00
00
00
ENDCHAR
STARTCHAR LATIN CAPITAL LETTER A WITH RING ABOVE
ENCODING 197
SWIDTH 437 0
DWIDTH 7 0
BBX 7 14 0 -3
BITMAP
10
28
10
10
10
28
28
28
38
44
44
00
00
00
ENDCHAR
STARTCHAR LATIN CAPITAL LETTER AE
ENCODING 198
SWIDTH 437 0
DWIDTH 7 0
BBX 7 14 0 -3
BITMAP
00
00
00
3C
50
50
78
50
50
50
5C
00
00
00
ENDCHAR
STARTCHAR LATIN CAPITAL LETTER C WITH CEDILLA
ENCODING 199
SWIDTH 437 0
DWIDTH 7 0
BBX 7 14 0 -3
BITMAP
00
00
00
38
44
40
40
40
40
44
38
10
20
00
ENDCHAR
STARTCHAR LATIN CAPITAL LETTER E WITH GRAVE
ENCODING 200
SWIDTH 437 0
DWIDTH 7 0
BBX 7 14 0 -3
BITMAP
20
10
00
7C
40
40
78
40
40
40
7C
00
00
00
ENDCHAR
STARTCHAR LATIN CAPITAL LETTER E WITH ACUTE
ENCODING 201
SWIDTH 437 0
DWIDTH 7 0
BBX 7 14 0 -3
BITMAP
08
10
00
7C
40
40
78
40
40
40
7C
00
00
00
ENDCHAR
STARTCHAR LATIN CAPITAL LETTER E WITH CIRCUMFLEX
ENCODING 202
SWIDTH 437 0
DWIDTH 7 0
BBX 7 14 0 -3
BITMAP
10
28
00
7C
40
40
78
40
40
40
7C
00
00
00
ENDCHAR
STARTCHAR LATIN CAPITAL LETTER E WITH DIAERESIS
ENCODING 203
SWIDTH 437 0
DWIDTH 7 0
BBX 7 14 0 -3
BITMAP
28
28
00
7C
40
40
78
40
40
40
7C
00
00
00
ENDCHAR
STARTCHAR LATIN CAPITAL LETTER I WITH GRAVE
ENCODING 204
SWIDTH 437 0
DWIDTH 7 0
BBX 7 14 0 -3
BITMAP
20
10
00
38
10
10
10
10
10
10
38
00
00
00
ENDCHAR
STARTCHAR LATIN CAPITAL LETTER I WITH ACUTE
ENCODING 205
SWIDTH 437 0
DWIDTH 7 0
BBX 7 14 0 -3
BITMAP
08
10
00
38
10
10
10
10
10
10
38
00
00
00
ENDCHAR
STARTCHAR LATIN CAPITAL LETTER I WITH CIRCUMFLEX
ENCODING 206
SWIDTH 437 0
DWIDTH 7 0
BBX 7 14 0 -3
BITMAP
10
28
00
38
10
10
10
10
10
10
38
00
00
00
ENDCHAR
STARTCHAR LATIN CAPITAL LETTER I WITH DIAERESIS
ENCODING 207
SWIDTH 437 0
DWIDTH 7 0
BBX 7 14 0 -3
BITMAP
28
28
00
38
10
10
10
10
10
10
38
00
00
00
ENDCHAR
STARTCHAR LATIN CAPITAL LETTER ETH
ENCODING 208
SWIDTH 437 0
DWIDTH 7 0
BBX 7 14 0 -3
BITMAP
00
00
00
70
48
44
E4
44
44
48
70
00
00
00
ENDCHAR
STARTCHAR LATIN CAPITAL LETTER N WITH TILDE
ENCODING 209
SWIDTH 437 0
DWIDTH 7 0
BBX 7 14 0 -3
BITMAP
28
50
00
44
64
54
54
4C
44
44
44
00
00
00
ENDCHAR
STARTCHAR LATIN CAPITAL LETTER O WITH GRAVE
ENCODING 210
SWIDTH 437 0
DWIDTH 7 0
BBX 7 14 0 -3
BITMAP
20
10
00
38
44
44
44
44
44
44
38
00
00
00
ENDCHAR
STARTCHAR LATIN CAPITAL LETTER O WITH ACUTE
ENCODING 211
SWIDTH 437 0
DWIDTH 7 0
BBX 7 14 0 -3
BITMAP
08
10
00
38
44
44
44
44
44
44
38
00
00
00
ENDCHAR
STARTCHAR LATIN CAPITAL LETTER O WITH CIRCUMFLEX
ENCODING 212
SWIDTH 437 0
DWIDTH 7 0
BBX 7 14 0 -3
BITMAP
10
28
00
38
44
44
44
44
44
44
38
00
00
00
ENDCHAR
STARTCHAR LATIN CAPITAL LETTER O WITH TILDE
ENCODING 213
SWIDTH 437 0
DWIDTH 7 0
BBX 7 14 0 -3
BITMAP
28
50
00
38
44
44
44
44
44
44
38
00
00
00
ENDCHAR
STARTCHAR LATIN CAPITAL LETTER O WITH DIAERESIS
ENCODING 214
SWIDTH 437 0
DWIDTH 7 0
BBX 7 14 0 -3
BITMAP
28
28
00
38
44
44
44
44
44
44
38
00
00
00
ENDCHAR
STARTCHAR MULTIPLICATION SIGN
ENCODING 215
SWIDTH 437 0
DWIDTH 7 0
BBX 7 14 0 -3
BITMAP
00
00
00
00
00
44
28
10
28
44
00
00
00
00
ENDCHAR
STARTCHAR LATIN CAPITAL LETTER O WITH STROKE
ENCODING 216
SWIDTH 437 0
DWIDTH 7 0
BBX 7 14 0 -3
BITMAP
00
04
04
38
4C
4C
54
54
64
64
38
40
40
00
ENDCHAR
STARTCHAR LATIN CAPITAL LETTER U WITH GRAVE
ENCODING 217
SWIDTH 437 0
DWIDTH 7 0
BBX 7 14 0 -3
BITMAP
20
10
00
44
44
44
44
44
44
44
3C
00
00
00
ENDCHAR
STARTCHAR LATIN CAPITAL LETTER U WITH ACUTE
ENCODING 218
SWIDTH 437 0
DWIDTH 7 0
BBX 7 14 0 -3
BITMAP
08
10
00
44
44
44
44
44
44
44
3C
00
00
00
ENDCHAR
STARTCHAR LATIN CAPITAL LETTER U WITH CIRCUMFLEX
ENCODING 219
SWIDTH 437 0
DWIDTH 7 0
BBX 7 14 0 -3
BITMAP
10
28
00
44
44
44
44
44
44
44
3C
00
00
00
ENDCHAR
STARTCHAR LATIN CAPITAL LETTER U WITH DIAERESIS
ENCODING 220
SWIDTH 437 0
DWIDTH 7 0
BBX 7 14 0 -3
BITMAP
28
28
00
44
44
44
44
44
44
44
3C
00
00
00
ENDCHAR
STARTCHAR LATIN CAPITAL LETTER Y WITH ACUTE
ENCODING 221
SWIDTH 437 0
DWIDTH 7 0
BBX 7 14 0 -3
BITMAP
08
10
00
44
44
44
38
10
10
10
10
00
00
00
ENDCHAR
STARTCHAR LATIN CAPITAL LETTER THORN
ENCODING 222
SWIDTH 437 0
DWIDTH 7 0
BBX 7 14 0 -3
BITMAP
00
00
00
40
40
78
44
44
78
40
40
00
00
00
ENDCHAR
STARTCHAR LATIN SMALL LETTER SHARP S
ENCODING 223
SWIDTH 437 0
DWIDTH 7 0
BBX 7 14 0 -3
BITMAP
00
00
00
70
48
48
50
48
48
48
50
00
00
00
ENDCHAR
STARTCHAR LATIN SMALL LETTER A WITH GRAVE
ENCODING 224
SWIDTH 437 0
DWIDTH 7 0
BBX 7 14 0 -3
BITMAP
20
10
00
00
00
38
04
3C
44
44
3C
00
00
00
ENDCHAR
STARTCHAR LATIN SMALL LETTER A WITH ACUTE
ENCODING 225
SWIDTH 437 0
DWIDTH 7 0
BBX 7 14 0 -3
BITMAP
08
10
00
00
00
38
04
3C
44
44
3C
00
00
00
ENDCHAR
STARTCHAR LATIN SMALL LETTER A WITH CIRCUMFLEX
ENCODING 226
SWIDTH 437 0
DWIDTH 7 0
BBX 7 14 0 -3
BITMAP
10
28
00
00
00
38
04
3C
44
44
3C
00
00
00
ENDCHAR
STARTCHAR LATIN SMALL LETTER A WITH TILDE
ENCODING 227
SWIDTH 437 0
DWIDTH 7 0
BBX 7 14 0 -3
BITMAP
28
50
00
00
00
38
04
3C
44
44
3C
00
00
00
ENDCHAR
STARTCHAR LATIN SMALL LETTER A WITH DIAERESIS
ENCODING 228
SWIDTH 437 0
DWIDTH 7 0
BBX 7 14 0 -3
BITMAP
28
28
00
00
00
38
04
3C
44
44
3C
00
00
00
ENDCHAR
STARTCHAR LATIN SMALL LETTER A WITH RING ABOVE
ENCODING 229
SWIDTH 437 0
DWIDTH 7 0
BBX 7 14 0 -3
BITMAP
10
28
10
00
00
38
04
3C
44
44
3C
00
00
00
ENDCHAR
STARTCHAR LATIN SMALL LETTER AE
ENCODING 230
SWIDTH 437 0
DWIDTH 7 0
BBX 7 14 0 -3
BITMAP
00
00
00
00
00
7C
14
18
30
50
7C
00
00
00
ENDCHAR
STARTCHAR LATIN SMALL LETTER C WITH CEDILLA
ENCODING 231
SWIDTH 437 0
DWIDTH 7 0
BBX 7 14 0 -3
BITMAP
00
00
00
00
00
38
44
40
40
44
38
10
20
00
ENDCHAR
STARTCHAR LATIN SMALL LETTER E WITH GRAVE
ENCODING 232
SWIDTH 437 0
DWIDTH 7 0
BBX 7 14 0 -3
BITMAP
20
10
00
00
00
38
44
7C
40
44
38
00
00
00
ENDCHAR
STARTCHAR LATIN SMALL LETTER E WITH ACUTE
ENCODING 233
SWIDTH 437 0
DWIDTH 7 0
BBX 7 14 0 -3
BITMAP
08
10
00
00
00
38
44
7C
40
44
38
00
00
00
ENDCHAR
STARTCHAR LATIN SMALL LETTER E WITH CIRCUMFLEX
ENCODING 234
SWIDTH 437 0
DWIDTH 7 0
BBX 7 14 0 -3
BITMAP
10
28
00
00
00
38
44
7C
40
44
38
00
00
00
ENDCHAR
STARTCHAR LATIN SMALL LETTER E WITH DIAERESIS
ENCODING 235
SWIDTH 437 0
DWIDTH 7 0
BBX 7 14 0 -3
BITMAP
28
28
00
00
00
38
44
7C
40
44
38
00
00
00
ENDCHAR
STARTCHAR LATIN SMALL LETTER I WITH GRAVE
ENCODING 236
SWIDTH 437 0
DWIDTH 7 0
BBX 7 14 0 -3
BITMAP
20
10
00
00
00
30
10
10
10
10
38
00
00
00
ENDCHAR
STARTCHAR LATIN SMALL LETTER I WITH ACUTE
ENCODING 237
SWIDTH 437 0
DWIDTH 7 0
BBX 7 14 0 -3
BITMAP
08
10
00
00
00
30
10
10
10
10
38
00
00
00
ENDCHAR
STARTCHAR LATIN SMALL LETTER I WITH CIRCUMFLEX
ENCODING 238
SWIDTH 437 0
DWIDTH 7 0
BBX 7 14 0 -3
BITMAP
10
28
00
00
00
30
10
10
10
10
38
00
00
00
ENDCHAR
STARTCHAR LATIN SMALL LETTER I WITH DIAERESIS
ENCODING 239
SWIDTH 437 0
DWIDTH 7 0
BBX 7 14 0 -3
BITMAP
28
28
00
00
00
30
10
10
10
10
38
00
00
00
ENDCHAR
STARTCHAR LATIN SMALL LETTER ETH
ENCODING 240
SWIDTH 437 0
DWIDTH 7 0
BBX 7 14 0 -3
BITMAP
00
00
50
20
50
38
44
44
44
44
38
00
00
00
ENDCHAR
STARTCHAR LATIN SMALL LETTER N WITH TILDE
ENCODING 241
SWIDTH 437 0
DWIDTH 7 0
BBX 7 14 0 -3
BITMAP
28
50
00
00
00
58
64
44
44
44
44
00
00
00
ENDCHAR
STARTCHAR LATIN SMALL LETTER O WITH GRAVE
ENCODING 242
SWIDTH 437 0
DWIDTH 7 0
BBX 7 14 0 -3
BITMAP
20
10
00
00
00
38
44
44
44
44
38
00
00
00
ENDCHAR
STARTCHAR LATIN SMALL LETTER O WITH ACUTE
ENCODING 243
SWIDTH 437 0
DWIDTH 7 0
BBX 7 14 0 -3
BITMAP
08
10
00
00
00
38
44
44
44
44
38
00
00
00
ENDCHAR
STARTCHAR LATIN SMALL LETTER O WITH CIRCUMFLEX
ENCODING 244
SWIDTH 437 0
DWIDTH 7 0
BBX 7 14 0 -3
BITMAP
10
28
00
00
00
38
44
44
44
44
38
00
00
00
ENDCHAR
STARTCHAR LATIN SMALL LETTER O WITH TILDE
ENCODING 245
SWIDTH 437 0
DWIDTH 7 0
BBX 7 14 0 -3
BITMAP
28
50
00
00
00
38
44
44
44
44
38
00
00
00
ENDCHAR
STARTCHAR LATIN SMALL LETTER O WITH DIAERESIS
ENCODING 246
SWIDTH 437 0
DWIDTH 7 0
BBX 7 14 0 -3
BITMAP
28
28
00
00
00
38
44
44
44
44
38
00
00
00
ENDCHAR
STARTCHAR DIVISION SIGN
ENCODING 247
SWIDTH 437 0
DWIDTH 7 0
BBX 7 14 0 -3
BITMAP
00
00
00
00
10
10
00
7C
00
10
10
00
00
00
ENDCHAR
STARTCHAR LATIN SMALL LETTER O WITH STROKE
ENCODING 248
SWIDTH 437 0
DWIDTH 7 0
BBX 7 14 0 -3
BITMAP
00
00
00
04
04
38
4C
54
54
64
38
40
40
00
ENDCHAR
STARTCHAR LATIN SMALL LETTER U WITH GRAVE
ENCODING 249
SWIDTH 437 0
DWIDTH 7 0
BBX 7 14 0 -3
BITMAP
20
10
00
00
00
44
44
44
44
44
3C
00
00
00
ENDCHAR
STARTCHAR LATIN SMALL LETTER U WITH ACUTE
ENCODING 250
SWIDTH 437 0
DWIDTH 7 0
BBX 7 14 0 -3
BITMAP
08
10
00
00
00
44
44
44
44
44
3C
00
00
00
ENDCHAR
STARTCHAR LATIN SMALL LETTER U WITH CIRCUMFLEX
ENCODING 251
SWIDTH 437 0
DWIDTH 7 0
BBX 7 14 0 -3
BITMAP
10
28
00
00
00
44
44
44
44
44
3C
00
00
00
ENDCHAR
STARTCHAR LATIN SMALL LETTER U WITH DIAERESIS
ENCODING 252
SWIDTH 437 0
DWIDTH 7 0
BBX 7 14 0 -3
BITMAP
28
28
00
00
00
44
44
44
44
44
3C
00
00
00
ENDCHAR
STARTCHAR LATIN SMALL LETTER Y WITH ACUTE
ENCODING 253
SWIDTH 437 0
DWIDTH 7 0
BBX 7 14 0 -3
BITMAP
08
10
00
00
00
44
44
44
44
44
3C
04
04
38
ENDCHAR
STARTCHAR LATIN SMALL LETTER THORN
ENCODING 254
SWIDTH 437 0
DWIDTH 7 0
BBX 7 14 0 -3
BITMAP
00
00
00
40
58
64
44
44
64
58
40
00
00
00
ENDCHAR
STARTCHAR LATIN SMALL LETTER Y WITH DIAERESIS
ENCODING 255
SWIDTH 437 0
DWIDTH 7 0
BBX 7 14 0 -3
BITMAP
28
28
00
00
00
44
44
44
44
44
3C
04
04
38
ENDCHAR
STARTCHAR GREEK SMALL LETTER LAMDA
ENCODING 955
SWIDTH 437 0
DWIDTH 7 0
BBX 7 14 0 -3
BITMAP
00
00
00
60
10
10
10
28
28
44
44
00
00
00
ENDCHAR
STARTCHAR CYRILLIC CAPITAL LETTER IO
ENCODING 1025
SWIDTH 437 0
DWIDTH 7 0
BBX 7 14 0 -3
BITMAP
28
28
00
7C
40
40
78
40
40
40
7C
00
00
00
ENDCHAR
STARTCHAR CYRILLIC CAPITAL LETTER A
ENCODING 1040
SWIDTH 437 0
DWIDTH 7 0
BBX 7 14 0 -3
BITMAP
00
00
00
10
10
28
28
28
38
44
44
00
00
00
ENDCHAR
STARTCHAR CYRILLIC CAPITAL LETTER BE
ENCODING 1041
SWIDTH 437 0
DWIDTH 7 0
BBX 7 14 0 -3
BITMAP
00
00
00
7C
40
40
78
44
44
44
78
00
00
00
ENDCHAR
STARTCHAR CYRILLIC CAPITAL LETTER VE
ENCODING 1042
SWIDTH 437 0
DWIDTH 7 0
BBX 7 14 0 -3
BITMAP
00
00
00
78
44
44
78
44
44
44
78
00
00
00
ENDCHAR
STARTCHAR CYRILLIC CAPITAL LETTER GHE
ENCODING 1043
SWIDTH 437 0
DWIDTH 7 0
BBX 7 14 0 -3
BITMAP
00
00
00
7C
40
40
40
40
40
40
40
00
00
00
ENDCHAR
STARTCHAR CYRILLIC CAPITAL LETTER DE
ENCODING 1044
SWIDTH 437 0
DWIDTH 7 0
BBX 7 14 0 -3
BITMAP
00
00
00
38
28
28
28
28
28
48
7C
44
44
00
ENDCHAR
STARTCHAR CYRILLIC CAPITAL LETTER IE
ENCODING 1045
SWIDTH 437 0
DWIDTH 7 0
BBX 7 14 0 -3
BITMAP
00
00
00
7C
40
40
78
40
40
40
7C
00
00
00
ENDCHAR
STARTCHAR CYRILLIC CAPITAL LETTER ZHE
ENCODING 1046
SWIDTH 437 0
DWIDTH 7 0
BBX 7 14 0 -3
BITMAP
00
00
00
54
54
54
38
54
54
54
54
00
00
00
ENDCHAR
STARTCHAR CYRILLIC CAPITAL LETTER ZE
ENCODING 1047
SWIDTH 437 0
DWIDTH 7 0
BBX 7 14 0 -3
BITMAP
00
00
00
38
44
04
38
04
04
44
38
00
00
00
ENDCHAR
STARTCHAR CYRILLIC CAPITAL LETTER I
ENCODING 1048
SWIDTH 437 0
DWIDTH 7 0
BBX 7 14 0 -3
BITMAP
00
00
00
44
4C
54
54
64
44
44
44
00
00
00
ENDCHAR
STARTCHAR CYRILLIC CAPITAL LETTER SHORT I
ENCODING 1049
SWIDTH 437 0
DWIDTH 7 0
BBX 7 14 0 -3
BITMAP
28
10
00
44
4C
54
54
64
44
44
44
00
00
00
ENDCHAR
STARTCHAR CYRILLIC CAPITAL LETTER KA
ENCODING 1050
SWIDTH 437 0
DWIDTH 7 0
BBX 7 14 0 -3
BITMAP
00
00
00
44
48
50
70
48
48
44
44
00
00
00
ENDCHAR
STARTCHAR CYRILLIC CAPITAL LETTER EL
ENCODING 1051
SWIDTH 437 0
DWIDTH 7 0
BBX 7 14 0 -3
BITMAP
00
00
00
1C
24
24
24
24
24
24
44
00
00
00
ENDCHAR
STARTCHAR CYRILLIC CAPITAL LETTER EM
ENCODING 1052
SWIDTH 437 0
DWIDTH 7 0
BBX 7 14 0 -3
BITMAP
00
00
00
44
6C
54
54
44
44
44
44
00
00
00
ENDCHAR
STARTCHAR CYRILLIC CAPITAL LETTER EN
ENCODING 1053
SWIDTH 437 0
DWIDTH 7 0
BBX 7 14 0 -3
BITMAP
00
00
00
44
44
44
7C
44
44
44
44
00
00
00
ENDCHAR
STARTCHAR CYRILLIC CAPITAL LETTER O
ENCODING 1054
SWIDTH 437 0
DWIDTH 7 0
BBX 7 14 0 -3
BITMAP
00
00
00
38
44
44
44
44
44
44
38
00
00
00
ENDCHAR
STARTCHAR CYRILLIC CAPITAL LETTER PE
ENCODING 1055
SWIDTH 437 0
DWIDTH 7 0
BBX 7 14 0 -3
BITMAP
00
00
00
7C
44
44
44
44
44
44
44
00
00
00
ENDCHAR
STARTCHAR CYRILLIC CAPITAL LETTER ER
ENCODING 1056
SWIDTH 437 0
DWIDTH 7 0
BBX 7 14 0 -3
BITMAP
00
00
00
78
44
44
78
40
40
40
40
00
00
00
ENDCHAR
STARTCHAR CYRILLIC CAPITAL LETTER ES
ENCODING 1057
SWIDTH 437 0
DWIDTH 7 0
BBX 7 14 0 -3
BITMAP
00
00
00
38
44
40
40
40
40
44
38
00
00
00
ENDCHAR
STARTCHAR CYRILLIC CAPITAL LETTER TE
ENCODING 1058
SWIDTH 437 0
DWIDTH 7 0
BBX 7 14 0 -3
BITMAP
00
00
00
7C
10
10
10
10
10
10
10
00
00
00
ENDCHAR
STARTCHAR CYRILLIC CAPITAL LETTER U
ENCODING 1059
SWIDTH 437 0
DWIDTH 7 0
BBX 7 14 0 -3
BITMAP
00
00
00
44
44
44
3C
04
04
04
38
00
00
00
ENDCHAR
STARTCHAR CYRILLIC CAPITAL LETTER EF
ENCODING 1060
SWIDTH 437 0
DWIDTH 7 0
BBX 7 14 0 -3
BITMAP
00
00
00
10
38
54
54
54
54
38
10
00
00
00
ENDCHAR
STARTCHAR CYRILLIC CAPITAL LETTER HA
ENCODING 1061
SWIDTH 437 0
DWIDTH 7 0
BBX 7 14 0 -3
BITMAP
00
00
00
44
28
28
10
10
28
28
44
00
00
00
ENDCHAR
STARTCHAR CYRILLIC CAPITAL LETTER TSE
ENCODING 1062
SWIDTH 437 0
DWIDTH 7 0
BBX 7 14 0 -3
BITMAP
00
00
00
44
44
44
44
44
44
44
7E
02
02
00
ENDCHAR
STARTCHAR CYRILLIC CAPITAL LETTER CHE
ENCODING 1063
SWIDTH 437 0
DWIDTH 7 0
BBX 7 14 0 -3
BITMAP
00
00
00
44
44
44
3C
04
04
04
04
00
00
00
ENDCHAR
STARTCHAR CYRILLIC CAPITAL LETTER SHA
ENCODING 1064
SWIDTH 437 0
DWIDTH 7 0
BBX 7 14 0 -3
BITMAP
00
00
00
54
54
54
54
54
54
54
7C
00
00
00
ENDCHAR
STARTCHAR CYRILLIC CAPITAL LETTER SHCHA
ENCODING 1065
SWIDTH 437 0
DWIDTH 7 0
BBX 7 14 0 -3
BITMAP
00
00
00
54
54
54
54
54
54
54
7E
02
02
00
ENDCHAR
STARTCHAR CYRILLIC CAPITAL LETTER HARD SIGN
ENCODING 1066
SWIDTH 437 0
DWIDTH 7 0
BBX 7 14 0 -3
BITMAP
00
00
00
60
20
20
38
24
24
24
38
00
00
00
ENDCHAR
STARTCHAR CYRILLIC CAPITAL LETTER YERU
ENCODING 1067
SWIDTH 437 0
DWIDTH 7 0
BBX 7 14 0 -3
BITMAP
00
00
00
44
44
44
64
54
54
54
64
00
00
00
ENDCHAR
STARTCHAR CYRILLIC CAPITAL LETTER SOFT SIGN
ENCODING 1068
SWIDTH 437 0
DWIDTH 7 0
BBX 7 14 0 -3
BITMAP
00
00
00
20
20
20
38
24
24
24
38
00
00
00
ENDCHAR
STARTCHAR CYRILLIC CAPITAL LETTER E
ENCODING 1069
SWIDTH 437 0
DWIDTH 7 0
BBX 7 14 0 -3
BITMAP
00
00
00
38
44
04
3C
04
04
44
38
00
00
00
ENDCHAR
STARTCHAR CYRILLIC CAPITAL LETTER YU
ENCODING 1070
SWIDTH 437 0
DWIDTH 7 0
BBX 7 14 0 -3
BITMAP
00
00
00
48
54
54
74
54
54
54
48
00
00
00
ENDCHAR
STARTCHAR CYRILLIC CAPITAL LETTER YA
ENCODING 1071
SWIDTH 437 0
DWIDTH 7 0
BBX 7 14 0 -3
BITMAP
00
00
00
3C
44
44
3C
24
44
44
44
00
00
00
ENDCHAR
STARTCHAR CYRILLIC SMALL LETTER A
ENCODING 1072
SWIDTH 437 0
DWIDTH 7 0
BBX 7 14 0 -3
BITMAP
00
00
00
00
00
38
04
3C
44
44
3C
00
00
00
ENDCHAR
STARTCHAR CYRILLIC SMALL LETTER BE
ENCODING 1073
SWIDTH 437 0
DWIDTH 7 0
BBX 7 14 0 -3
BITMAP
00
00
1C
20
40
78
44
44
44
44
38
00
00
00
ENDCHAR
STARTCHAR CYRILLIC SMALL LETTER VE
ENCODING 1074
SWIDTH 437 0
DWIDTH 7 0
BBX 7 14 0 -3
BITMAP
00
00
00
00
00
78
44
78
44
44
78
00
00
00
ENDCHAR
STARTCHAR CYRILLIC SMALL LETTER GHE
ENCODING 1075
SWIDTH 437 0
DWIDTH 7 0
BBX 7 14 0 -3
BITMAP
00
00
00
00
00
7C
40
40
40
40
40
00
00
00
ENDCHAR
STARTCHAR CYRILLIC SMALL LETTER DE
ENCODING 1076
SWIDTH 437 0
DWIDTH 7 0
BBX 7 14 0 -3
BITMAP
00
00
00
00
00
38
28
28
28
48
7C
44
44
00
ENDCHAR
STARTCHAR CYRILLIC SMALL LETTER IE
ENCODING 1077
SWIDTH 437 0
DWIDTH 7 0
BBX 7 14 0 -3
BITMAP
00
00
00
00
00
38
44
7C
40
44
38
00
00
00
ENDCHAR
STARTCHAR CYRILLIC SMALL LETTER ZHE
ENCODING 1078
SWIDTH 437 0
DWIDTH 7 0
BBX 7 14 0 -3
BITMAP
00
00
00
00
00
54
54
38
54
54
54
00
00
00
ENDCHAR
STARTCHAR CYRILLIC SMALL LETTER ZE
ENCODING 1079
SWIDTH 437 0
DWIDTH 7 0
BBX 7 14 0 -3
BITMAP
00
00
00
00
00
38
44
18
04
44
38
00
00
00
ENDCHAR
STARTCHAR CYRILLIC SMALL LETTER I
ENCODING 1080
SWIDTH 437 0
DWIDTH 7 0
BBX 7 14 0 -3
BITMAP
00
00
00
00
00
44
4C
54
64
44
44
00
00
00
ENDCHAR
STARTCHAR CYRILLIC SMALL LETTER SHORT I
ENCODING 1081
SWIDTH 437 0
DWIDTH 7 0
BBX 7 14 0 -3
BITMAP
28
10
00
00
00
44
4C
54
64
44
44
00
00
00
ENDCHAR
STARTCHAR CYRILLIC SMALL LETTER KA
ENCODING 1082
SWIDTH 437 0
DWIDTH 7 0
BBX 7 14 0 -3
BITMAP
00
00
00
00
00
44
48
70
50
48
44
00
00
00
ENDCHAR
STARTCHAR CYRILLIC SMALL LETTER EL
ENCODING 1083
SWIDTH 437 0
DWIDTH 7 0
BBX 7 14 0 -3
BITMAP
00
00
00
00
00
1C
24
24
24
24
44
00
00
00
ENDCHAR
STARTCHAR CYRILLIC SMALL LETTER EM
ENCODING 1084
SWIDTH 437 0
DWIDTH 7 0
BBX 7 14 0 -3
BITMAP
00
00
00
00
00
44
6C
54
54
44
44
00
00
00
ENDCHAR
STARTCHAR CYRILLIC SMALL LETTER EN
ENCODING 1085
SWIDTH 437 0
DWIDTH 7 0
BBX 7 14 0 -3
BITMAP
00
00
00
00
00
44
44
7C
44
44
44
00
00
00
ENDCHAR
STARTCHAR CYRILLIC SMALL LETTER O
ENCODING 1086
SWIDTH 437 0
DWIDTH 7 0
BBX 7 14 0 -3
BITMAP
00
00
00
00
00
38
44
44
44
44
38
00
00
00
ENDCHAR
STARTCHAR CYRILLIC SMALL LETTER PE
ENCODING 1087
SWIDTH 437 0
DWIDTH 7 0
BBX 7 14 0 -3
BITMAP
00
00
00
00
00
7C
44
44
44
44
44
00
00
00
ENDCHAR
STARTCHAR CYRILLIC SMALL LETTER ER
ENCODING 1088
SWIDTH 437 0
DWIDTH 7 0
BBX 7 14 0 -3
BITMAP
00
00
00
00
00
78
44
44
44
44
78
40
40
40
ENDCHAR
STARTCHAR CYRILLIC SMALL LETTER ES
ENCODING 1089
SWIDTH 437 0
DWIDTH 7 0
BBX 7 14 0 -3
BITMAP
00
00
00
00
00
38
44
40
40
44
38
00
00
00
ENDCHAR
STARTCHAR CYRILLIC SMALL LETTER TE
ENCODING 1090
SWIDTH 437 0
DWIDTH 7 0
BBX 7 14 0 -3
BITMAP
00
00
00
00
00
7C
10
10
10
10
10
00
00
00
ENDCHAR
STARTCHAR CYRILLIC SMALL LETTER U
ENCODING 1091
SWIDTH 437 0
DWIDTH 7 0
BBX 7 14 0 -3
BITMAP
00
00
00
00
00
44
44
44
44
44
3C
04
04
38
ENDCHAR
STARTCHAR CYRILLIC SMALL LETTER EF
ENCODING 1092
SWIDTH 437 0
DWIDTH 7 0
BBX 7 14 0 -3
BITMAP
00
00
00
10
10
38
54
54
54
54
38
10
10
00
ENDCHAR
STARTCHAR CYRILLIC SMALL LETTER HA
ENCODING 1093
SWIDTH 437 0
DWIDTH 7 0
BBX 7 14 0 -3
BITMAP
00
00
00
00
00
44
28
10
10
28
44
00
00
00
ENDCHAR
STARTCHAR CYRILLIC SMALL LETTER TSE
ENCODING 1094
SWIDTH 437 0
DWIDTH 7 0
BBX 7 14 0 -3
BITMAP
00
00
00
00
00
44
44
44
44
44
7E
02
02
00
ENDCHAR
STARTCHAR CYRILLIC SMALL LETTER CHE
ENCODING 1095
SWIDTH 437 0
DWIDTH 7 0
BBX 7 14 0 -3
BITMAP
00
00
00
00
00
44
44
44
3C
04
04
00
00
00
ENDCHAR
STARTCHAR CYRILLIC SMALL LETTER SHA
ENCODING 1096
SWIDTH 437 0
DWIDTH 7 0
BBX 7 14 0 -3
BITMAP
00
00
00
00
00
54
54
54
54
54
7C
00
00
00
ENDCHAR
STARTCHAR CYRILLIC SMALL LETTER SHCHA
ENCODING 1097
SWIDTH 437 0
DWIDTH 7 0
BBX 7 14 0 -3
BITMAP
00
00
00
00
00
54
54
54
54
54
7E
02
02
00
ENDCHAR
STARTCHAR CYRILLIC SMALL LETTER HARD SIGN
ENCODING 1098
SWIDTH 437 0
DWIDTH 7 0
BBX 7 14 0 -3
BITMAP
00
00
00
00
00
60
20
38
24
24
38
00
00
00
ENDCHAR
STARTCHAR CYRILLIC SMALL LETTER YERU
ENCODING 1099
SWIDTH 437 0
DWIDTH 7 0
BBX 7 14 0 -3
BITMAP
00
00
00
00
00
44
44
64
54
54
64
00
00
00
ENDCHAR
STARTCHAR CYRILLIC SMALL LETTER SOFT SIGN
ENCODING 1100
SWIDTH 437 0
DWIDTH 7 0
BBX 7 14 0 -3
BITMAP
00
00
00
00
00
20
20
38
24
24
38
00
00
00
ENDCHAR
STARTCHAR CYRILLIC SMALL LETTER E
ENCODING 1101
SWIDTH 437 0
DWIDTH 7 0
BBX 7 14 0 -3
BITMAP
00
00
00
00
00
38
44
1C
04
44
38
00
00
00
ENDCHAR
STARTCHAR CYRILLIC SMALL LETTER YU
ENCODING 1102
SWIDTH 437 0
DWIDTH 7 0
BBX 7 14 0 -3
BITMAP
00
00
00
00
00
48
54
74
54
54
48
00
00
00
ENDCHAR
STARTCHAR CYRILLIC SMALL LETTER YA
ENCODING 1103
SWIDTH 437 0
DWIDTH 7 0
BBX 7 14 0 -3
BITMAP
00
00
00
00
00
3C
44
44
3C
24
44
00
00
00
ENDCHAR
STARTCHAR CYRILLIC SMALL LETTER IO
ENCODING 1105
SWIDTH 437 0
DWIDTH 7 0
BBX 7 14 0 -3
BITMAP
28
28
00
00
00
38
44
7C
40
44
38
00
00
00
ENDCHAR
STARTCHAR BOX DRAWINGS LIGHT HORIZONTAL
ENCODING 9472
SWIDTH 437 0
DWIDTH 7 0
BBX 7 14 0 -3
BITMAP
00
00
00
00
00
00
FE
00
00
00
00
00
00
00
ENDCHAR
STARTCHAR BOX DRAWINGS HEAVY HORIZONTAL
ENCODING 9473
SWIDTH 437 0
DWIDTH 7 0
BBX 7 14 0 -3
BITMAP
00
00
00
00
00
00
FE
FE
00
00
00
00
00
00
ENDCHAR
STARTCHAR BOX DRAWINGS LIGHT VERTICAL
ENCODING 9474
SWIDTH 437 0
DWIDTH 7 0
BBX 7 14 0 -3
BITMAP
10
10
10
10
10
10
10
10
10
10
10
10
10
10
ENDCHAR
STARTCHAR BOX DRAWINGS HEAVY VERTICAL
ENCODING 9475
SWIDTH 437 0
DWIDTH 7 0
BBX 7 14 0 -3
BITMAP
18
18
18
18
18
18
18
18
18
18
18
18
18
18
ENDCHAR
STARTCHAR BOX DRAWINGS LIGHT TRIPLE DASH HORIZONTAL
ENCODING 9476
SWIDTH 437 0
DWIDTH 7 0
BBX 7 14 0 -3
BITMAP
00
00
00
00
00
00
54
00
00
00
00
00
00
00
ENDCHAR
STARTCHAR BOX DRAWINGS HEAVY TRIPLE DASH HORIZONTAL
ENCODING 9477
SWIDTH 437 0
DWIDTH 7 0
BBX 7 14 0 -3
BITMAP
00
00
00
00
00
00
54
54
00
00
00
00
00
00
ENDCHAR
STARTCHAR BOX DRAWINGS LIGHT TRIPLE DASH VERTICAL
ENCODING 9478
SWIDTH 437 0
DWIDTH 7 0
BBX 7 14 0 -3
BITMAP
10
10
10
10
00
10
10
10
10
00
10
10
10
10
ENDCHAR
STARTCHAR BOX DRAWINGS HEAVY TRIPLE DASH VERTICAL
ENCODING 9479
SWIDTH 437 0
DWIDTH 7 0
BBX 7 14 0 -3
BITMAP
18
18
18
18
00
18
18
18
18
00
18
18
18
18
ENDCHAR
STARTCHAR BOX DRAWINGS LIGHT QUADRUPLE DASH HORIZONTAL
ENCODING 9480
SWIDTH 437 0
DWIDTH 7 0
BBX 7 14 0 -3
BITMAP
00
00
00
00
00
00
AA
00
00
00
00
00
00
00
ENDCHAR
STARTCHAR BOX DRAWINGS HEAVY QUADRUPLE DASH HORIZONTAL
ENCODING 9481
SWIDTH 437 0
DWIDTH 7 0
BBX 7 14 0 -3
BITMAP
00
00
00
00
00
00
AA
AA
00
00
00
00
00
00
ENDCHAR
STARTCHAR BOX DRAWINGS LIGHT QUADRUPLE DASH VERTICAL
ENCODING 9482
SWIDTH 437 0
DWIDTH 7 0
BBX 7 14 0 -3
BITMAP
10
10
00
00
10
10
00
00
10
10
00
00
10
10
ENDCHAR
STARTCHAR BOX DRAWINGS HEAVY QUADRUPLE DASH VERTICAL
ENCODING 9483
SWIDTH 437 0
DWIDTH 7 0
BBX 7 14 0 -3
BITMAP
18
18
00
00
18
18
00
00
18
18
00
00
18
18
ENDCHAR
STARTCHAR BOX DRAWINGS LIGHT DOWN AND RIGHT
ENCODING 9484
SWIDTH 437 0
DWIDTH 7 0
BBX 7 14 0 -3
BITMAP
00
00
00
00
00
00
1E
10
10
10
10
10
10
10
ENDCHAR
STARTCHAR BOX DRAWINGS DOWN LIGHT AND RIGHT HEAVY
ENCODING 9485
SWIDTH 437 0
DWIDTH 7 0
BBX 7 14 0 -3
BITMAP
00
00
00
00
00
00
1E
1E
10
10
10
10
10
10
ENDCHAR
STARTCHAR BOX DRAWINGS DOWN HEAVY AND RIGHT LIGHT
ENCODING 9486
SWIDTH 437 0
DWIDTH 7 0
BBX 7 14 0 -3
BITMAP
00
00
00
00
00
00
1E
18
18
18
18
18
18
18
ENDCHAR
STARTCHAR BOX DRAWINGS HEAVY DOWN AND RIGHT
ENCODING 9487
SWIDTH 437 0
DWIDTH 7 0
BBX 7 14 0 -3
BITMAP
00
00
00
00
00
00
1E
1E
18
18
18
18
18
18
ENDCHAR
STARTCHAR BOX DRAWINGS LIGHT DOWN AND LEFT
ENCODING 9488
SWIDTH 437 0
DWIDTH 7 0
BBX 7 14 0 -3
BITMAP
00
00
00
00
00
00
F0
10
10
10
10
10
10
10
ENDCHAR
STARTCHAR BOX DRAWINGS DOWN LIGHT AND LEFT HEAVY
ENCODING 9489
SWIDTH 437 0
DWIDTH 7 0
BBX 7 14 0 -3
BITMAP
00
00
00
00
00
00
F0
F0
10
10
10
10
10
10
ENDCHAR
STARTCHAR BOX DRAWINGS DOWN HEAVY AND LEFT LIGHT
ENCODING 9490
SWIDTH 437 0
DWIDTH 7 0
BBX 7 14 0 -3
BITMAP
00
00
00
00
00
00
F8
18
18
18
18
18
18
18
ENDCHAR
STARTCHAR BOX DRAWINGS HEAVY DOWN AND LEFT
ENCODING 9491
SWIDTH 437 0
DWIDTH 7 0
BBX 7 14 0 -3
BITMAP
00
00
00
00
00
00
F8
F8
18
18
18
18
18
18
ENDCHAR
STARTCHAR BOX DRAWINGS LIGHT UP AND RIGHT
ENCODING 9492
SWIDTH 437 0
DWIDTH 7 0
BBX 7 14 0 -3
BITMAP
10
10
10
10
10
10
1E
00
00
00
00
00
00
00
ENDCHAR
STARTCHAR BOX DRAWINGS UP LIGHT AND RIGHT HEAVY
ENCODING 9493
SWIDTH 437 0
DWIDTH 7 0
BBX 7 14 0 -3
BITMAP
10
10
10
10
10
10
1E
1E
00
00
00
00
00
00
ENDCHAR
STARTCHAR BOX DRAWINGS UP HEAVY AND RIGHT LIGHT
ENCODING 9494
SWIDTH 437 0
DWIDTH 7 0
BBX 7 14 0 -3
BITMAP
18
18
18
18
18
18
1E
00
00
00
00
00
00
00
ENDCHAR
STARTCHAR BOX DRAWINGS HEAVY UP AND RIGHT
ENCODING 9495
SWIDTH 437 0
DWIDTH 7 0
BBX 7 14 0 -3
BITMAP
18
18
18
18
18
18
1E
1E
00
00
00
00
00
00
ENDCHAR
STARTCHAR BOX DRAWINGS LIGHT UP AND LEFT
ENCODING 9496
SWIDTH 437 0
DWIDTH 7 0
BBX 7 14 0 -3
BITMAP
10
10
10
10
10
10
F0
00
00
00
00
00
00
00
ENDCHAR
STARTCHAR BOX DRAWINGS UP LIGHT AND LEFT HEAVY
ENCODING 9497
SWIDTH 437 0
DWIDTH 7 0
BBX 7 14 0 -3
BITMAP
10
10
10
10
10
10
F0
F0
00
00
00
00
00
00
ENDCHAR
STARTCHAR BOX DRAWINGS UP HEAVY AND LEFT LIGHT
ENCODING 9498
SWIDTH 437 0
DWIDTH 7 0
BBX 7 14 0 -3
BITMAP
18
18
18
18
18
18
F8
00
00
00
00
00
00
00
ENDCHAR
STARTCHAR BOX DRAWINGS HEAVY UP AND LEFT
ENCODING 9499
SWIDTH 437 0
DWIDTH 7 0
BBX 7 14 0 -3
BITMAP
18
18
18
18
18
18
F8
F8
00
00
00
00
00
00
ENDCHAR
STARTCHAR BOX DRAWINGS LIGHT VERTICAL AND RIGHT
ENCODING 9500
SWIDTH 437 0
DWIDTH 7 0
BBX 7 14 0 -3
BITMAP
10
10
10
10
10
10
1E
10
10
10
10
10
10
10
ENDCHAR
STARTCHAR BOX DRAWINGS VERTICAL LIGHT AND RIGHT HEAVY
ENCODING 9501
SWIDTH 437 0
DWIDTH 7 0
BBX 7 14 0 -3
BITMAP
10
10
10
10
10
10
1E
1E
10
10
10
10
10
10
ENDCHAR
STARTCHAR BOX DRAWINGS UP HEAVY AND RIGHT DOWN LIGHT
ENCODING 9502
SWIDTH 437 0
DWIDTH 7 0
BBX 7 14 0 -3
BITMAP
18
18
18
18
18
18
1E
10
10
10
10
10
10
10
ENDCHAR
STARTCHAR BOX DRAWINGS DOWN HEAVY AND RIGHT UP LIGHT
ENCODING 9503
SWIDTH 437 0
DWIDTH 7 0
BBX 7 14 0 -3
BITMAP
10
10
10
10
10
10
1E
18
18
18
18
18
18
18
ENDCHAR
STARTCHAR BOX DRAWINGS VERTICAL HEAVY AND RIGHT LIGHT
ENCODING 9504
SWIDTH 437 0
DWIDTH 7 0
BBX 7 14 0 -3
BITMAP
18
18
18
18
18
18
1E
18
18
18
18
18
18
18
ENDCHAR
STARTCHAR BOX DRAWINGS DOWN LIGHT AND RIGHT UP HEAVY
ENCODING 9505
SWIDTH 437 0
DWIDTH 7 0
BBX 7 14 0 -3
BITMAP
18
18
18
18
18
18
1E
1E
10
10
10
10
10
10
ENDCHAR
STARTCHAR BOX DRAWINGS UP LIGHT AND RIGHT DOWN HEAVY
ENCODING 9506
SWIDTH 437 0
DWIDTH 7 0
BBX 7 14 0 -3
BITMAP
10
10
10
10
10
10
1E
1E
18
18
18
18
18
18
ENDCHAR
STARTCHAR BOX DRAWINGS HEAVY VERTICAL AND RIGHT
ENCODING 9507
SWIDTH 437 0
DWIDTH 7 0
BBX 7 14 0 -3
BITMAP
18
18
18
18
18
18
1E
1E
18
18
18
18
18
18
ENDCHAR
STARTCHAR BOX DRAWINGS LIGHT VERTICAL AND LEFT
ENCODING 9508
SWIDTH 437 0
DWIDTH 7 0
BBX 7 14 0 -3
BITMAP
10
10
10
10
10
10
F0
10
10
10
10
10
10
10
ENDCHAR
STARTCHAR BOX DRAWINGS VERTICAL LIGHT AND LEFT HEAVY
ENCODING 9509
SWIDTH 437 0
DWIDTH 7 0
BBX 7 14 0 -3
BITMAP
10
10
10
10
10
10
F0
F0
10
10
10
10
10
10
ENDCHAR
STARTCHAR BOX DRAWINGS UP HEAVY AND LEFT DOWN LIGHT
ENCODING 9510
SWIDTH 437 0
DWIDTH 7 0
BBX 7 14 0 -3
BITMAP
18
18
18
18
18
18
F8
10
10
10
10
10
10
10
ENDCHAR
STARTCHAR BOX DRAWINGS DOWN HEAVY AND LEFT UP LIGHT
ENCODING 9511
SWIDTH 437 0
DWIDTH 7 0
BBX 7 14 0 -3
BITMAP
10
10
10
10
10
10
F8
18
18
18
18
18
18
18
ENDCHAR
STARTCHAR BOX DRAWINGS VERTICAL HEAVY AND LEFT LIGHT
ENCODING 9512
SWIDTH 437 0
DWIDTH 7 0
BBX 7 14 0 -3
BITMAP
18
18
18
18
18
18
F8
18
18
18
18
18
18
18
ENDCHAR
STARTCHAR BOX DRAWINGS DOWN LIGHT AND LEFT UP HEAVY
ENCODING 9513
SWIDTH 437 0
DWIDTH 7 0
BBX 7 14 0 -3
BITMAP
18
18
18
18
18
18
F8
F8
10
10
10
10
10
10
ENDCHAR
STARTCHAR BOX DRAWINGS UP LIGHT AND LEFT DOWN HEAVY
ENCODING 9514
SWIDTH 437 0
DWIDTH 7 0
BBX 7 14 0 -3
BITMAP
10
10
10
10
10
10
F8
F8
18
18
18
18
18
18
ENDCHAR
STARTCHAR BOX DRAWINGS HEAVY VERTICAL AND LEFT
ENCODING 9515
SWIDTH 437 0
DWIDTH 7 0
BBX 7 14 0 -3
BITMAP
18
18
18
18
18
18
F8
F8
18
18
18
18
18
18
ENDCHAR
STARTCHAR BOX DRAWINGS LIGHT DOWN AND HORIZONTAL
ENCODING 9516
SWIDTH 437 0
DWIDTH 7 0
BBX 7 14 0 -3
BITMAP
00
00
00
00
00
00
FE
10
10
10
10
10
10
10
ENDCHAR
STARTCHAR BOX DRAWINGS LEFT HEAVY AND RIGHT DOWN LIGHT
ENCODING 9517
SWIDTH 437 0
DWIDTH 7 0
BBX 7 14 0 -3
BITMAP
00
00
00
00
00
00
FE
F0
10
10
10
10
10
10
ENDCHAR
STARTCHAR BOX DRAWINGS RIGHT HEAVY AND LEFT DOWN LIGHT
ENCODING 9518
SWIDTH 437 0
DWIDTH 7 0
BBX 7 14 0 -3
BITMAP
00
00
00
00
00
00
FE
1E
10
10
10
10
10
10
ENDCHAR
STARTCHAR BOX DRAWINGS DOWN LIGHT AND HORIZONTAL HEAVY
ENCODING 9519
SWIDTH 437 0
DWIDTH 7 0
BBX 7 14 0 -3
BITMAP
00
00
00
00
00
00
FE
FE
10
10
10
10
10
10
ENDCHAR
STARTCHAR BOX DRAWINGS DOWN HEAVY AND HORIZONTAL LIGHT
ENCODING 9520
SWIDTH 437 0
DWIDTH 7 0
BBX 7 14 0 -3
BITMAP
00
00
00
00
00
00
FE
18
18
18
18
18
18
18
ENDCHAR
STARTCHAR BOX DRAWINGS RIGHT LIGHT AND LEFT DOWN HEAVY
ENCODING 9521
SWIDTH 437 0
DWIDTH 7 0
BBX 7 14 0 -3
BITMAP
00
00
00
00
00
00
FE
F8
18
18
18
18
18
18
ENDCHAR
STARTCHAR BOX DRAWINGS LEFT LIGHT AND RIGHT DOWN HEAVY
ENCODING 9522
SWIDTH 437 0
DWIDTH 7 0
BBX 7 14 0 -3
BITMAP
00
00
00
00
00
00
FE
1E
18
18
18
18
18
18
ENDCHAR
STARTCHAR BOX DRAWINGS HEAVY DOWN AND HORIZONTAL
ENCODING 9523
SWIDTH 437 0
DWIDTH 7 0
BBX 7 14 0 -3
BITMAP
00
00
00
00
00
00
FE
FE
18
18
18
18
18
18
ENDCHAR
STARTCHAR BOX DRAWINGS LIGHT UP AND HORIZONTAL
ENCODING 9524
SWIDTH 437 0
DWIDTH 7 0
BBX 7 14 0 -3
BITMAP
10
10
10
10
10
10
FE
00
00
00
00
00
00
00
ENDCHAR
STARTCHAR BOX DRAWINGS LEFT HEAVY AND RIGHT UP LIGHT
ENCODING 9525
SWIDTH 437 0
DWIDTH 7 0
BBX 7 14 0 -3
BITMAP
10
10
10
10
10
10
FE
F0
00
00
00
00
00
00
ENDCHAR
STARTCHAR BOX DRAWINGS RIGHT HEAVY AND LEFT UP LIGHT
ENCODING 9526
SWIDTH 437 0
DWIDTH 7 0
BBX 7 14 0 -3
BITMAP
10
10
10
10
10
10
FE
1E
00
00
00
00
00
00
ENDCHAR
STARTCHAR BOX DRAWINGS UP LIGHT AND HORIZONTAL HEAVY
ENCODING 9527
SWIDTH 437 0
DWIDTH 7 0
BBX 7 14 0 -3
BITMAP
10
10
10
10
10
10
FE
FE
00
00
00
00
00
00
ENDCHAR
STARTCHAR BOX DRAWINGS UP HEAVY AND HORIZONTAL LIGHT
ENCODING 9528
SWIDTH 437 0
DWIDTH 7 0
BBX 7 14 0 -3
BITMAP
18
18
18
18
18
18
FE
00
00
00
00
00
00
00
ENDCHAR
STARTCHAR BOX DRAWINGS RIGHT LIGHT AND LEFT UP HEAVY
ENCODING 9529
SWIDTH 437 0
DWIDTH 7 0
BBX 7 14 0 -3
BITMAP
18
18
18
18
18
18
FE
F8
00
00
00
00
00
00
ENDCHAR
STARTCHAR BOX DRAWINGS LEFT LIGHT AND RIGHT UP HEAVY
ENCODING 9530
SWIDTH 437 0
DWIDTH 7 0
BBX 7 14 0 -3
BITMAP
18
18
18
18
18
18
FE
1E
00
00
00
00
00
00
ENDCHAR
STARTCHAR BOX DRAWINGS HEAVY UP AND HORIZONTAL
ENCODING 9531
SWIDTH 437 0
DWIDTH 7 0
BBX 7 14 0 -3
BITMAP
18
18
18
18
18
18
FE
FE
00
00
00
00
00
00
ENDCHAR
STARTCHAR BOX DRAWINGS LIGHT VERTICAL AND HORIZONTAL
ENCODING 9532
SWIDTH 437 0
DWIDTH 7 0
BBX 7 14 0 -3
BITMAP
10
10
10
10
10
10
FE
10
10
10
10
10
10
10
ENDCHAR
STARTCHAR BOX DRAWINGS LEFT HEAVY AND RIGHT VERTICAL LIGHT
ENCODING 9533
SWIDTH 437 0
DWIDTH 7 0
BBX 7 14 0 -3
BITMAP
10
10
10
10
10
10
FE
F0
10
10
10
10
10
10
ENDCHAR
STARTCHAR BOX DRAWINGS RIGHT HEAVY AND LEFT VERTICAL LIGHT
ENCODING 9534
SWIDTH 437 0
DWIDTH 7 0
BBX 7 14 0 -3
BITMAP
10
10
10
10
10
10
FE
1E
10
10
10
10
10
10
ENDCHAR
STARTCHAR BOX DRAWINGS VERTICAL LIGHT AND HORIZONTAL HEAVY
ENCODING 9535
SWIDTH 437 0
DWIDTH 7 0
BBX 7 14 0 -3
BITMAP
10
10
10
10
10
10
FE
FE
10
10
10
10
10
10
ENDCHAR
STARTCHAR BOX DRAWINGS UP HEAVY AND DOWN HORIZONTAL LIGHT
ENCODING 9536
SWIDTH 437 0
DWIDTH 7 0
BBX 7 14 0 -3
BITMAP
18
18
18
18
18
18
FE
10
10
10
10
10
10
10
ENDCHAR
STARTCHAR BOX DRAWINGS DOWN HEAVY AND UP HORIZONTAL LIGHT
ENCODING 9537
SWIDTH 437 0
DWIDTH 7 0
BBX 7 14 0 -3
BITMAP
10
10
10
10
10
10
FE
18
18
18
18
18
18
18
ENDCHAR
STARTCHAR BOX DRAWINGS VERTICAL HEAVY AND HORIZONTAL LIGHT
ENCODING 9538
SWIDTH 437 0
DWIDTH 7 0
BBX 7 14 0 -3
BITMAP
18
18
18
18
18
18
FE
18
18
18
18
18
18
18
ENDCHAR
STARTCHAR BOX DRAWINGS LEFT UP HEAVY AND RIGHT DOWN LIGHT
ENCODING 9539
SWIDTH 437 0
DWIDTH 7 0
BBX 7 14 0 -3
BITMAP
18
18
18
18
18
18
FE
F0
10
10
10
10
10
10
ENDCHAR
STARTCHAR BOX DRAWINGS RIGHT UP HEAVY AND LEFT DOWN LIGHT
ENCODING 9540
SWIDTH 437 0
DWIDTH 7 0
BBX 7 14 0 -3
BITMAP
18
18
18
18
18
18
FE
1E
10
10
10
10
10
10
ENDCHAR
STARTCHAR BOX DRAWINGS LEFT DOWN HEAVY AND RIGHT UP LIGHT
ENCODING 9541
SWIDTH 437 0
DWIDTH 7 0
BBX 7 14 0 -3
BITMAP
10
10
10
10
10
10
FE
F8
18
18
18
18
18
18
ENDCHAR
STARTCHAR BOX DRAWINGS RIGHT DOWN HEAVY AND LEFT UP LIGHT
ENCODING 9542
SWIDTH 437 0
DWIDTH 7 0
BBX 7 14 0 -3
BITMAP
10
10
10
10
10
10
FE
1E
18
18
18
18
18
18
ENDCHAR
STARTCHAR BOX DRAWINGS DOWN LIGHT AND UP HORIZONTAL HEAVY
ENCODING 9543
SWIDTH 437 0
DWIDTH 7 0
BBX 7 14 0 -3
BITMAP
18
18
18
18
18
18
FE
FE
10
10
10
10
10
10
ENDCHAR
STARTCHAR BOX DRAWINGS UP LIGHT AND DOWN HORIZONTAL HEAVY
ENCODING 9544
SWIDTH 437 0
DWIDTH 7 0
BBX 7 14 0 -3
BITMAP
10
10
10
10
10
10
FE
FE
18
18
18
18
18
18
ENDCHAR
STARTCHAR BOX DRAWINGS RIGHT LIGHT AND LEFT VERTICAL HEAVY
ENCODING 9545
SWIDTH 437 0
DWIDTH 7 0
BBX 7 14 0 -3
BITMAP
18
18
18
18
18
18
FE
F8
18
18
18
18
18
18
ENDCHAR
STARTCHAR BOX DRAWINGS LEFT LIGHT AND RIGHT VERTICAL HEAVY
ENCODING 9546
SWIDTH 437 0
DWIDTH 7 0
BBX 7 14 0 -3
BITMAP
18
18
18
18
18
18
FE
1E
18
18
18
18
18
18
ENDCHAR
STARTCHAR BOX DRAWINGS HEAVY VERTICAL AND HORIZONTAL
ENCODING 9547
SWIDTH 437 0
DWIDTH 7 0
BBX 7 14 0 -3
BITMAP
18
18
18
18
18
18
FE
FE
18
18
18
18
18
18
ENDCHAR
STARTCHAR BOX DRAWINGS LIGHT DOUBLE DASH HORIZONTAL
ENCODING 9548
SWIDTH 437 0
DWIDTH 7 0
BBX 7 14 0 -3
BITMAP
00
00
00
00
00
00
EE
00
00
00
00
00
00
00
ENDCHAR
STARTCHAR BOX DRAWINGS HEAVY DOUBLE DASH HORIZONTAL
ENCODING 9549
SWIDTH 437 0
DWIDTH 7 0
BBX 7 14 0 -3
BITMAP
00
00
00
00
00
00
EE
EE
00
00
00
00
00
00
ENDCHAR
STARTCHAR BOX DRAWINGS LIGHT DOUBLE DASH VERTICAL
ENCODING 9550
SWIDTH 437 0
DWIDTH 7 0
BBX 7 14 0 -3
BITMAP
10
10
10
10
10
10
00
00
10
10
10
10
10
10
ENDCHAR
STARTCHAR BOX DRAWINGS HEAVY DOUBLE DASH VERTICAL
ENCODING 9551
SWIDTH 437 0
DWIDTH 7 0
BBX 7 14 0 -3
BITMAP
18
18
18
18
18
18
00
00
18
18
18
18
18
18
ENDCHAR
STARTCHAR BOX DRAWINGS DOUBLE HORIZONTAL
ENCODING 9552
SWIDTH 437 0
DWIDTH 7 0
BBX 7 14 0 -3
BITMAP
00
00
00
00
00
FE
00
FE
00
00
00
00
00
00
ENDCHAR
STARTCHAR BOX DRAWINGS DOUBLE VERTICAL
ENCODING 9553
SWIDTH 437 0
DWIDTH 7 0
BBX 7 14 0 -3
BITMAP
28
28
28
28
28
28
28
28
28
28
28
28
28
28
ENDCHAR
STARTCHAR BOX DRAWINGS DOWN SINGLE AND RIGHT DOUBLE
ENCODING 9554
SWIDTH 437 0
DWIDTH 7 0
BBX 7 14 0 -3
BITMAP
00
00
00
00
00
1E
10
1E
10
10
10
10
10
10
ENDCHAR
STARTCHAR BOX DRAWINGS DOWN DOUBLE AND RIGHT SINGLE
ENCODING 9555
SWIDTH 437 0
DWIDTH 7 0
BBX 7 14 0 -3
BITMAP
00
00
00
00
00
00
3E
28
28
28
28
28
28
28
ENDCHAR
STARTCHAR BOX DRAWINGS DOUBLE DOWN AND RIGHT
ENCODING 9556
SWIDTH 437 0
DWIDTH 7 0
BBX 7 14 0 -3
BITMAP
00
00
00
00
00
3E
20
2E
28
28
28
28
28
28
ENDCHAR
STARTCHAR BOX DRAWINGS DOWN SINGLE AND LEFT DOUBLE
ENCODING 9557
SWIDTH 437 0
DWIDTH 7 0
BBX 7 14 0 -3
BITMAP
00
00
00
00
00
F0
10
F0
10
10
10
10
10
10
ENDCHAR
STARTCHAR BOX DRAWINGS DOWN DOUBLE AND LEFT SINGLE
ENCODING 9558
SWIDTH 437 0
DWIDTH 7 0
BBX 7 14 0 -3
BITMAP
00
00
00
00
00
00
F8
28
28
28
28
28
28
28
ENDCHAR
STARTCHAR BOX DRAWINGS DOUBLE DOWN AND LEFT
ENCODING 9559
SWIDTH 437 0
DWIDTH 7 0
BBX 7 14 0 -3
BITMAP
00
00
00
00
00
F8
08
E8
28
28
28
28
28
28
ENDCHAR
STARTCHAR BOX DRAWINGS UP SINGLE AND RIGHT DOUBLE
ENCODING 9560
SWIDTH 437 0
DWIDTH 7 0
BBX 7 14 0 -3
BITMAP
10
10
10
10
10
1E
10
1E
00
00
00
00
00
00
ENDCHAR
STARTCHAR BOX DRAWINGS UP DOUBLE AND RIGHT SINGLE
ENCODING 9561
SWIDTH 437 0
DWIDTH 7 0
BBX 7 14 0 -3
BITMAP
28
28
28
28
28
28
3E
00
00
00
00
00
00
00
ENDCHAR
STARTCHAR BOX DRAWINGS DOUBLE UP AND RIGHT
ENCODING 9562
SWIDTH 437 0
DWIDTH 7 0
BBX 7 14 0 -3
BITMAP
28
28
28
28
28
2E
20
3E
00
00
00
00
00
00
ENDCHAR
STARTCHAR BOX DRAWINGS UP SINGLE AND LEFT DOUBLE
ENCODING 9563
SWIDTH 437 0
DWIDTH 7 0
BBX 7 14 0 -3
BITMAP
10
10
10
10
10
F0
10
F0
00
00
00
00
00
00
ENDCHAR
STARTCHAR BOX DRAWINGS UP DOUBLE AND LEFT SINGLE
ENCODING 9564
SWIDTH 437 0
DWIDTH 7 0
BBX 7 14 0 -3
BITMAP
28
28
28
28
28
28
F8
00
00
00
00
00
00
00
ENDCHAR
STARTCHAR BOX DRAWINGS DOUBLE UP AND LEFT
ENCODING 9565
SWIDTH 437 0
DWIDTH 7 0
BBX 7 14 0 -3
BITMAP
28
28
28
28
28
E8
08
F8
00
00
00
00
00
00
ENDCHAR
STARTCHAR BOX DRAWINGS VERTICAL SINGLE AND RIGHT DOUBLE
ENCODING 9566
SWIDTH 437 0
DWIDTH 7 0
BBX 7 14 0 -3
BITMAP
10
10
10
10
10
1E
10
1E
10
10
10
10
10
10
ENDCHAR
STARTCHAR BOX DRAWINGS VERTICAL DOUBLE AND RIGHT SINGLE
ENCODING 9567
SWIDTH 437 0
DWIDTH 7 0
BBX 7 14 0 -3
BITMAP
28
28
28
28
28
28
2E
28
28
28
28
28
28
28
ENDCHAR
STARTCHAR BOX DRAWINGS DOUBLE VERTICAL AND RIGHT
ENCODING 9568
SWIDTH 437 0
DWIDTH 7 0
BBX 7 14 0 -3
BITMAP
28
28
28
28
28
2E
20
2E
28
28
28
28
28
28
ENDCHAR
STARTCHAR BOX DRAWINGS VERTICAL SINGLE AND LEFT DOUBLE
ENCODING 9569
SWIDTH 437 0
DWIDTH 7 0
BBX 7 14 0 -3
BITMAP
10
10
10
10
10
F0
10
F0
10
10
10
10
10
10
ENDCHAR
STARTCHAR BOX DRAWINGS VERTICAL DOUBLE AND LEFT SINGLE
ENCODING 9570
SWIDTH 437 0
DWIDTH 7 0
BBX 7 14 0 -3
BITMAP
28
28
28
28
28
28
E8
28
28
28
28
28
28
28
ENDCHAR
STARTCHAR BOX DRAWINGS DOUBLE VERTICAL AND LEFT
ENCODING 9571
SWIDTH 437 0
DWIDTH 7 0
BBX 7 14 0 -3
BITMAP
28
28
28
28
28
E8
08
E8
28
28
28
28
28
28
ENDCHAR
STARTCHAR BOX DRAWINGS DOWN SINGLE AND HORIZONTAL DOUBLE
ENCODING 9572
SWIDTH 437 0
DWIDTH 7 0
BBX 7 14 0 -3
BITMAP
00
00
00
00
00
FE
00
FE
10
10
10
10
10
10
ENDCHAR
STARTCHAR BOX DRAWINGS DOWN DOUBLE AND HORIZONTAL SINGLE
ENCODING 9573
SWIDTH 437 0
DWIDTH 7 0
BBX 7 14 0 -3
BITMAP
00
00
00
00
00
00
FE
28
28
28
28
28
28
28
ENDCHAR
STARTCHAR BOX DRAWINGS DOUBLE DOWN AND HORIZONTAL
ENCODING 9574
SWIDTH 437 0
DWIDTH 7 0
BBX 7 14 0 -3
BITMAP
00
00
00
00
00
FE
00
EE
28
28
28
28
28
28
ENDCHAR
STARTCHAR BOX DRAWINGS UP SINGLE AND HORIZONTAL DOUBLE
ENCODING 9575
SWIDTH 437 0
DWIDTH 7 0
BBX 7 14 0 -3
BITMAP
10
10
10
10
10
FE
00
FE
00
00
00
00
00
00
ENDCHAR
STARTCHAR BOX DRAWINGS UP DOUBLE AND HORIZONTAL SINGLE
ENCODING 9576
SWIDTH 437 0
DWIDTH 7 0
BBX 7 14 0 -3
BITMAP
28
28
28
28
28
28
FE
00
00
00
00
00
00
00
ENDCHAR
STARTCHAR BOX DRAWINGS DOUBLE UP AND HORIZONTAL
ENCODING 9577
SWIDTH 437 0
DWIDTH 7 0
BBX 7 14 0 -3
BITMAP
28
28
28
28
28
EE
00
FE
00
00
00
00
00
00
ENDCHAR
STARTCHAR BOX DRAWINGS VERTICAL SINGLE AND HORIZONTAL DOUBLE
ENCODING 9578
SWIDTH 437 0
DWIDTH 7 0
BBX 7 14 0 -3
BITMAP
10
10
10
10
10
FE
10
FE
10
10
10
10
10
10
ENDCHAR
STARTCHAR BOX DRAWINGS VERTICAL DOUBLE AND HORIZONTAL SINGLE
ENCODING 9579
SWIDTH 437 0
DWIDTH 7 0
BBX 7 14 0 -3
BITMAP
28
28
28
28
28
28
FE
28
28
28
28
28
28
28
ENDCHAR
STARTCHAR BOX DRAWINGS DOUBLE VERTICAL AND HORIZONTAL
ENCODING 9580
SWIDTH 437 0
DWIDTH 7 0
BBX 7 14 0 -3
BITMAP
28
28
28
28
28
EE
00
EE
28
28
28
28
28
28
ENDCHAR
STARTCHAR BOX DRAWINGS LIGHT ARC DOWN AND RIGHT
ENCODING 9581
SWIDTH 437 0
DWIDTH 7 0
BBX 7 14 0 -3
BITMAP
00
00
00
00
00
00
0E
10
10
10
10
10
10
10
ENDCHAR
STARTCHAR BOX DRAWINGS LIGHT ARC DOWN AND LEFT
ENCODING 9582
SWIDTH 437 0
DWIDTH 7 0
BBX 7 14 0 -3
BITMAP
00
00
00
00
00
00
E0
10
10
10
10
10
10
10
ENDCHAR
STARTCHAR BOX DRAWINGS LIGHT ARC UP AND LEFT
ENCODING 9583
SWIDTH 437 0
DWIDTH 7 0
BBX 7 14 0 -3
BITMAP
10
10
10
10
10
10
E0
00
00
00
00
00
00
00
ENDCHAR
STARTCHAR BOX DRAWINGS LIGHT ARC UP AND RIGHT
ENCODING 9584
SWIDTH 437 0
DWIDTH 7 0
BBX 7 14 0 -3
BITMAP
10
10
10
10
10
10
0E
00
00
00
00
00
00
00
ENDCHAR
STARTCHAR BOX DRAWINGS LIGHT DIAGONAL UPPER RIGHT TO LOWER LEFT
ENCODING 9585
SWIDTH 437 0
DWIDTH 7 0
BBX 7 14 0 -3
BITMAP
02
02
04
04
08
08
10
10
20
20
40
40
80
80
ENDCHAR
STARTCHAR BOX DRAWINGS LIGHT DIAGONAL UPPER LEFT TO LOWER RIGHT
ENCODING 9586
SWIDTH 437 0
DWIDTH 7 0
BBX 7 14 0 -3
BITMAP
80
80
40
40
20
20
10
10
08
08
04
04
02
02
ENDCHAR
STARTCHAR BOX DRAWINGS LIGHT DIAGONAL CROSS
ENCODING 9587
SWIDTH 437 0
DWIDTH 7 0
BBX 7 14 0 -3
BITMAP
82
82
44
44
28
28
10
10
28
28
44
44
82
82
ENDCHAR
STARTCHAR BOX DRAWINGS LIGHT LEFT
ENCODING 9588
SWIDTH 437 0
DWIDTH 7 0
BBX 7 14 0 -3
BITMAP
00
00
00
00
00
00
F0
00
00
00
00
00
00
00
ENDCHAR
STARTCHAR BOX DRAWINGS LIGHT UP
ENCODING 9589
SWIDTH 437 0
DWIDTH 7 0
BBX 7 14 0 -3
BITMAP
10
10
10
10
10
10
10
00
00
00
00
00
00
00
ENDCHAR
STARTCHAR BOX DRAWINGS LIGHT RIGHT
ENCODING 9590
SWIDTH 437 0
DWIDTH 7 0
BBX 7 14 0 -3
BITMAP
00
00
00
00
00
00
1E
00
00
00
00
00
00
00
ENDCHAR
STARTCHAR BOX DRAWINGS LIGHT DOWN
ENCODING 9591
SWIDTH 437 0
DWIDTH 7 0
BBX 7 14 0 -3
BITMAP
00
00
00
00
00
00
10
10
10
10
10
10
10
10
ENDCHAR
STARTCHAR BOX DRAWINGS HEAVY LEFT
ENCODING 9592
SWIDTH 437 0
DWIDTH 7 0
BBX 7 14 0 -3
BITMAP
00
00
00
00
00
00
F0
F0
00
00
00
00
00
00
ENDCHAR
STARTCHAR BOX DRAWINGS HEAVY UP
ENCODING 9593
SWIDTH 437 0
DWIDTH 7 0
BBX 7 14 0 -3
BITMAP
18
18
18
18
18
18
18
00
00
00
00
00
00
00
ENDCHAR
STARTCHAR BOX DRAWINGS HEAVY RIGHT
ENCODING 9594
SWIDTH 437 0
DWIDTH 7 0
BBX 7 14 0 -3
BITMAP
00
00
00
00
00
00
1E
1E
00
00
00
00
00
00
ENDCHAR
STARTCHAR BOX DRAWINGS HEAVY DOWN
ENCODING 9595
SWIDTH 437 0
DWIDTH 7 0
BBX 7 14 0 -3
BITMAP
00
00
00
00
00
00
18
18
18
18
18
18
18
18
ENDCHAR
STARTCHAR BOX DRAWINGS LIGHT LEFT AND HEAVY RIGHT
ENCODING 9596
SWIDTH 437 0
DWIDTH 7 0
BBX 7 14 0 -3
BITMAP
00
00
00
00
00
00
FE
1E
00
00
00
00
00
00
ENDCHAR
STARTCHAR BOX DRAWINGS LIGHT UP AND HEAVY DOWN
ENCODING 9597
SWIDTH 437 0
DWIDTH 7 0
BBX 7 14 0 -3
BITMAP
10
10
10
10
10
10
18
18
18
18
18
18
18
18
ENDCHAR
STARTCHAR BOX DRAWINGS HEAVY LEFT AND LIGHT RIGHT
ENCODING 9598
SWIDTH 437 0
DWIDTH 7 0
BBX 7 14 0 -3
BITMAP
00
00
00
00
00
00
FE
F0
00
00
00
00
00
00
ENDCHAR
STARTCHAR BOX DRAWINGS HEAVY UP AND LIGHT DOWN
ENCODING 9599
SWIDTH 437 0
DWIDTH 7 0
BBX 7 14 0 -3
BITMAP
18
18
18
18
18
18
18
10
10
10
10
10
10
10
ENDCHAR
ENDFONT
